<svg xmlns="http://www.w3.org/2000/svg" width="238" height="19" viewBox="0 0 238 19" fill="none">
  <path d="M86.2595 18.6439C80.2057 18.6439 76.2789 14.2773 76.2789 9.73251V9.16923C76.2789 4.54743 80.2057 0.257812 86.2595 0.257812C92.3133 0.257812 96.2738 4.54743 96.2738 9.16923V9.73251C96.2738 14.2773 92.347 18.6439 86.2595 18.6439ZM93.0351 9.21738C93.0351 5.90508 90.629 2.95868 86.2595 2.95868C81.89 2.95868 79.5224 5.9099 79.5224 9.21738V9.63141C79.5224 12.9437 81.9285 15.9479 86.2595 15.9479C90.5905 15.9479 93.0351 12.9437 93.0351 9.63141V9.21738ZM17.8631 17.9747L15.6061 13.7381H5.56777L3.36857 17.9747H0L9.23951 0.874053H11.9103L21.3038 17.9747H17.8631ZM10.4955 4.21042L6.77564 11.4031H14.3453L10.4955 4.21042ZM35.8801 18.6536C29.7445 18.6536 26.8956 15.3124 26.8956 10.8735V0.874053H30.0813V10.912C30.0813 14.0703 32.1602 15.9479 36.1111 15.9479C40.1678 15.9479 41.8329 14.0703 41.8329 10.912V0.874053H45.0426V10.8495C45.0426 15.1005 42.3478 18.6439 35.8801 18.6439V18.6536ZM62.9057 3.54603V17.9892H59.6959V3.54603H52.2273V0.874053H70.3743V3.54603H62.9057ZM124.863 17.9892V4.44151L124.016 5.93397L116.856 17.9699H115.292L108.208 5.93397L107.361 4.44151V17.9747H104.228V0.874053H108.67L115.407 12.6067L116.206 14.051L117 12.6067L123.675 0.874053H128.063V17.9747L124.863 17.9892ZM152.327 17.9892L150.065 13.7525H140.036L137.856 17.9892H134.488L143.727 0.888496H146.393L155.763 17.9747L152.327 17.9892ZM144.959 4.21042L141.239 11.4031H148.809L144.959 4.21042ZM168.698 3.54603V17.9892H165.493V3.54603H158.025V0.874053H176.167V3.54603H168.698ZM192.235 3.54603V17.9892H189.025V3.54603H181.556V0.874053H199.708V3.54603H192.235ZM207.61 17.9892V2.49168C208.89 2.49168 209.405 1.79841 209.405 0.874053H210.776V17.9747L207.61 17.9892ZM235.891 5.71732C234.052 3.9567 231.609 2.96781 229.063 2.95387C224.496 2.95387 221.926 6.08803 221.926 9.34736V9.67955C221.926 12.9148 224.52 15.9383 229.294 15.9383C231.792 15.8912 234.181 14.9105 235.993 13.1892L237.917 15.2161C235.516 17.455 232.345 18.6826 229.063 18.6439C222.595 18.6439 218.668 14.4313 218.668 9.80954V9.24626C218.668 4.62446 222.956 0.257812 229.217 0.257812C232.836 0.257812 236.122 1.77434 237.879 3.67121L235.891 5.71732ZM88.3769 6.19876C88.0979 6.01965 87.7593 5.9586 87.4354 6.029C87.1115 6.09941 86.8288 6.29552 86.6493 6.57428L83.7331 11.1191C83.5529 11.3977 83.4902 11.7364 83.5588 12.0611C83.6273 12.3858 83.8214 12.6702 84.0988 12.8522C84.2368 12.9406 84.3909 13.0008 84.5523 13.0295C84.7136 13.0582 84.879 13.0548 85.039 13.0195C85.1991 12.9842 85.3505 12.9176 85.4848 12.8236C85.6191 12.7297 85.7335 12.6102 85.8216 12.4719L88.7378 7.96082C88.8278 7.82369 88.8898 7.67016 88.9203 7.50901C88.9509 7.34787 88.9493 7.18227 88.9158 7.02172C88.8823 6.86117 88.8174 6.70882 88.7249 6.57338C88.6325 6.43794 88.5142 6.32209 88.3769 6.23246V6.19876Z" fill="black"/>
</svg>
