<?xml version="1.0" encoding="utf-8"?>
<!-- Generator: Adobe Illustrator 21.1.0, SVG Export Plug-In . SVG Version: 6.00 Build 0)  -->
<svg version="1.1" id="Layer_1" xmlns="http://www.w3.org/2000/svg" xmlns:xlink="http://www.w3.org/1999/xlink" x="0px" y="0px"
	 viewBox="0 0 150 150" style="enable-background:new 0 0 150 150;" xml:space="preserve">
<style type="text/css">
	.st0{fill:#FFFFFF;}
	.st1{fill:#f36e44;}
</style>
<g>
	<g>
		<circle class="st0" cx="74.6" cy="61.1" r="46.8"/>
	</g>
	<g>
		<circle class="st1" cx="74.6" cy="61.1" r="45.5"/>
	</g>
	<g>
		<path class="st0" d="M96.8,82c-1.5-1.7-3.4-6.6-3.4-6.6c4.7-8.4,16.5-11.6,16.5-11.6c-4.1-3.8-16.4-6.2-16.4-6.2
			c-0.6,0.4-3.7,4.6-3.7,4.6c-0.2-1.9-2.6-6.6-3-7.4c2.8-1.4,5.1-3.8,5.6-7.8c0.8-6.3,3.6-9,5.9-10.1c0.6-0.3,1.2-0.5,1.9-0.7
			c0.4-0.1,0.9-0.2,1.5-0.2c0,0,0.1,0,0.1,0l0,0c-1-0.9-2-1.3-3-1.5c-4.2-0.7-7.8,3.8-7.8,3.8s0,0,0,0c0,0,0,0,0,0
			c-0.1,0-0.2-0.1-0.4-0.1c0,0,0,0,0,0c-0.1,0-0.2-0.1-0.3-0.1l0,0c-1.5-0.5-4.7-1.2-7.3,0.1c0,0,0,0,0,0c-0.5,0.3-1,0.6-1.5,1.1
			c0,0,0,0-0.1,0.1c-0.1,0.1-0.2,0.3-0.4,0.4c0,0-0.1,0.1-0.1,0.1c-0.1,0.1-0.2,0.2-0.3,0.4c0,0.1-0.1,0.1-0.1,0.2
			c-0.1,0.1-0.1,0.3-0.2,0.4c0,0.1-0.1,0.2-0.1,0.2c-0.1,0.2-0.1,0.3-0.2,0.5c0,0.1-0.1,0.2-0.1,0.2c-0.1,0.2-0.1,0.4-0.2,0.6
			c0,0.1,0,0.1-0.1,0.2l0,0c0,0,0,0,0,0l0,0h0c0,0,0,0,0,0v0c0,0,0-0.1-0.1-0.1c-0.2-0.2-0.4-0.5-0.6-0.7c-0.1-0.1-0.3-0.2-0.4-0.3
			c-0.1-0.1-0.2-0.2-0.3-0.2c-0.2-0.1-0.4-0.3-0.6-0.4c0,0-0.1-0.1-0.1-0.1c-0.2-0.1-0.5-0.3-0.7-0.4c0,0,0,0,0,0
			c-1-0.4-2.1-0.7-3.1-0.6c0,0,0,0,0,0c-0.1,0-0.1,0-0.2,0c0,0,0,0,0,0c-0.3,0-0.5,0.1-0.8,0.1c-0.1,0-0.2,0.1-0.3,0.1
			c-0.1,0-0.2,0.1-0.3,0.1c-0.1,0-0.3,0.1-0.4,0.1c-0.1,0-0.1,0-0.2,0.1c-0.2,0.1-0.3,0.1-0.4,0.2c0,0-0.1,0-0.1,0.1
			c-0.5,0.3-1,0.7-1.5,1.1c-0.3,0.3-0.5,0.5-0.7,0.9c0,0,0,0.1-0.1,0.1c0,0.1-0.1,0.1-0.1,0.2c-1.4,2.9-0.1,6.9-0.1,6.9
			c-2,0.3-3.6,1.6-3.9,2c-2.6-1.9-3.3-4.8-3.4-6.6c-0.1-0.8,0.1-1.7,0.4-2.5c0.1-0.2,0.2-0.5,0.4-0.7c2.2-3.1,6,0.1,6.7,0.7h0l0-0.1
			c0,0,0,0,0,0l0,0c-0.2-1.2-0.6-2.1-1.1-2.8c-2.9-3.6-9.9-1.2-9.9-1.2s-0.4-0.5-1-1.1c-1.8-1.7-5.9-4.6-9.9-1.2c0,0,0.1,0,0.4,0
			c1.5,0.1,7.2,0.8,8.8,9.3c0.1,0.5,0.2,1,0.3,1.6c0.5,4.1,2.9,6.5,5.9,7.9c-0.5,1-2,4-2.6,6c-0.1,0.5-0.2,0.9-0.3,1.2
			c0,0-1.6-2.2-2.7-3.6c-0.4-0.5-0.8-0.9-1-1.1c-0.8,0.2-12.3,2.5-16.3,6.2c0,0,0.1,0,0.4,0.1c2.1,0.6,11.9,4,16,11.5
			c0,0-0.5,1.3-1.2,2.7l0,0l0,0c0,0,0,0.1,0,0.1c-0.2,0.4-0.4,0.8-0.6,1.2c-0.5,1-1.1,2-1.6,2.6c-0.4,0.4-0.4,0.9-0.2,1.3
			c0,0,0,0,0,0.1c0,0,0.1,0.1,0.1,0.1c0,0,0.1,0.1,0.1,0.1c0,0.1,0.1,0.1,0.1,0.2c0,0,0,0,0,0c0.1,0.1,0.2,0.2,0.2,0.2l0.1,0.1l0,0
			c1.1,1.1,6,2,7.7,2.3c2.6,0.4,5.5,0.9,5.8,1c0,0-5.1-7.6-4-15.7c0,0,0.1-0.7,0.3-1.8c0.3-1,0.7-2.4,1.6-3.8c1.7-2.9-2.4-4-2.4-4
			V61c0,0,3.5,3.1,11.9,3.4c0,0,0.4,0,0.6,0c0.2,0,0.6,0,0.6,0c8.4-0.3,11.7-3.4,11.7-3.4v1.2c0,0-3.9,1.1-2.2,4
			c1.7,2.9,2.2,5.6,2.2,5.6c0.3,2.4,0.1,4.7-0.3,6.8c-1.1,5.1-3.6,8.9-3.6,8.9c0.4-0.1,14.6-3.3,14.3-5C97.1,82.4,97,82.2,96.8,82z
			 M83.8,51.9c-0.9-0.7-2.5-1.9-4.1-2.2c0.3,0,0.7-3.1,0.7-3.4c0.1-1.3-0.1-2.6-0.7-3.6c0.7-0.6,4.9-3.9,7.1-0.6
			c0.6,0.8,0.7,1.9,0.7,2.9C87.4,46.9,86.7,50,83.8,51.9z"/>
	</g>
	<g>
		<path class="st0" d="M16.2,128.8c0.5-0.4,1.1-0.9,1.7-1.5c0.7-0.6,1.3-1.2,2-1.9c0.7-0.6,1.4-1.2,2-1.8c0.6-0.6,1.1-1.1,1.6-1.5
			h-6c-0.5,0-0.8-0.1-1-0.3c-0.2-0.2-0.3-0.5-0.3-0.9c0-0.3,0-0.5,0.1-0.7c0.1-0.2,0.1-0.4,0.2-0.5h9.2c0.4,0,0.8,0.1,1,0.3
			c0.3,0.2,0.4,0.5,0.4,0.9c0,0.3-0.1,0.6-0.2,0.8c-0.1,0.2-0.4,0.6-0.8,0.9c-0.2,0.2-0.5,0.5-0.9,0.9c-0.4,0.3-0.7,0.7-1.1,1.1
			c-0.4,0.4-0.8,0.8-1.3,1.2c-0.4,0.4-0.9,0.8-1.3,1.1c-0.4,0.4-0.8,0.7-1.1,1c-0.4,0.3-0.7,0.6-0.9,0.8h7.6v2.3H16.2V128.8z"/>
		<path class="st0" d="M38.6,130.2c-0.1,0.1-0.3,0.2-0.6,0.3c-0.3,0.1-0.6,0.3-1,0.4c-0.4,0.1-0.8,0.2-1.3,0.3
			c-0.5,0.1-1.1,0.1-1.7,0.1c-0.8,0-1.6-0.1-2.4-0.4c-0.7-0.3-1.4-0.6-1.9-1.1c-0.5-0.5-1-1.1-1.3-1.8c-0.3-0.7-0.5-1.6-0.5-2.5
			c0-0.9,0.2-1.7,0.5-2.5c0.3-0.7,0.7-1.4,1.3-1.9c0.5-0.5,1.2-0.9,1.9-1.2c0.7-0.3,1.6-0.4,2.4-0.4c0.8,0,1.5,0.1,2.1,0.3
			c0.6,0.2,1.1,0.5,1.5,0.8c0.4,0.3,0.7,0.7,0.9,1.2c0.2,0.5,0.3,0.9,0.3,1.4c0,0.5-0.1,1-0.3,1.4c-0.2,0.4-0.5,0.8-1,1.1
			c-0.5,0.3-1.2,0.5-2,0.7c-0.8,0.2-1.9,0.3-3.2,0.3c-0.3,0-0.6,0-0.8,0c-0.3,0-0.5,0-0.8,0c0.1,0.8,0.5,1.4,1.1,1.9
			c0.6,0.5,1.5,0.7,2.7,0.7c0.4,0,0.8,0,1.1-0.1c0.3-0.1,0.6-0.1,0.9-0.2c0.3-0.1,0.5-0.2,0.7-0.3c0.2-0.1,0.3-0.2,0.4-0.2
			L38.6,130.2z M30.7,124.9c0.3,0,0.7,0,1,0c0.3,0,0.6,0,0.9,0c0.8,0,1.5-0.1,2-0.2c0.5-0.1,0.9-0.2,1.2-0.4
			c0.3-0.2,0.5-0.4,0.6-0.6c0.1-0.2,0.1-0.4,0.1-0.7c0-0.6-0.2-1-0.7-1.3c-0.5-0.3-1-0.4-1.7-0.4c-0.6,0-1,0.1-1.5,0.3
			c-0.4,0.2-0.8,0.5-1.1,0.8c-0.3,0.3-0.5,0.7-0.7,1.1C30.8,124,30.7,124.4,30.7,124.9z"/>
		<path class="st0" d="M40.9,124.2c0-0.8,0.1-1.4,0.4-2c0.3-0.6,0.7-1.1,1.1-1.5c0.5-0.4,1.1-0.7,1.7-0.9c0.7-0.2,1.4-0.3,2.2-0.3
			c0.8,0,1.5,0.1,2.2,0.3c0.7,0.2,1.3,0.5,1.7,0.9c0.5,0.4,0.9,0.9,1.1,1.5c0.3,0.6,0.4,1.3,0.4,2v6.8h-2.6v-6.2
			c0-1-0.2-1.8-0.7-2.3c-0.5-0.5-1.2-0.8-2.2-0.8c-1,0-1.7,0.3-2.2,0.8c-0.5,0.5-0.7,1.3-0.7,2.3v6.2h-2.6V124.2z"/>
		<path class="st0" d="M53.7,122c-0.1-0.2-0.2-0.4-0.3-0.7c-0.1-0.3-0.2-0.5-0.2-0.7c0-0.2,0.1-0.4,0.2-0.5c0.1-0.1,0.3-0.2,0.6-0.2
			c0.2,0,0.3,0,0.4,0c0.1,0,0.2,0.1,0.2,0.1c0.3,0.9,0.7,1.8,1.1,2.7c0.4,0.9,0.8,1.8,1.2,2.6c0.4,0.8,0.8,1.6,1.2,2.4
			c0.4,0.7,0.7,1.4,1,2c0.5-0.9,1-1.9,1.4-2.9c0.5-1,0.9-1.9,1.3-2.8c0.4-0.9,0.7-1.6,1-2.2c0.3-0.6,0.4-1,0.5-1.1
			c0.1-0.3,0.2-0.5,0.4-0.6c0.1-0.1,0.3-0.2,0.6-0.2c0.2,0,0.4,0,0.6,0.1c0.1,0.1,0.2,0.2,0.3,0.2c-0.1,0.4-0.3,0.8-0.5,1.4
			c-0.2,0.5-0.5,1.1-0.8,1.8c-0.3,0.6-0.6,1.3-1,2c-0.3,0.7-0.7,1.4-1,2.1c-0.3,0.7-0.7,1.3-1,1.9c-0.3,0.6-0.6,1.2-0.9,1.6h-1.6
			c-0.3-0.6-0.7-1.4-1.2-2.2c-0.5-0.8-0.9-1.7-1.3-2.6c-0.4-0.9-0.8-1.7-1.2-2.4C54.2,123.1,53.9,122.4,53.7,122z"/>
		<path class="st0" d="M67.7,126.4c0.2,1.2,0.6,2,1.4,2.7c0.8,0.6,1.8,0.9,3.2,0.9c0.8,0,1.4-0.1,1.9-0.3c0.5-0.2,0.9-0.4,1.2-0.6
			l0.7,1.1c-0.1,0.1-0.3,0.2-0.5,0.3c-0.2,0.1-0.5,0.3-0.9,0.4c-0.3,0.1-0.7,0.2-1.2,0.3c-0.4,0.1-0.9,0.1-1.4,0.1
			c-0.8,0-1.6-0.1-2.3-0.4c-0.7-0.2-1.4-0.6-1.9-1.1c-0.5-0.5-1-1.1-1.3-1.8c-0.3-0.7-0.5-1.5-0.5-2.5c0-0.9,0.1-1.7,0.5-2.5
			c0.3-0.7,0.7-1.4,1.3-1.9c0.5-0.5,1.2-0.9,1.9-1.2c0.7-0.3,1.6-0.4,2.4-0.4c0.8,0,1.4,0.1,2,0.3c0.6,0.2,1,0.4,1.4,0.7
			c0.4,0.3,0.7,0.7,0.8,1.1c0.2,0.4,0.3,0.9,0.3,1.4c0,0.5-0.1,0.9-0.3,1.4c-0.2,0.4-0.5,0.8-1,1.1c-0.5,0.3-1.1,0.5-2,0.7
			c-0.8,0.2-1.8,0.3-3.1,0.3c-0.5,0-0.9,0-1.3,0C68.5,126.5,68.1,126.5,67.7,126.4z M67.6,125.3c0.4,0,0.8,0,1.2,0.1
			c0.4,0,0.8,0,1.2,0c1,0,1.9-0.1,2.5-0.2c0.7-0.1,1.2-0.3,1.6-0.5c0.4-0.2,0.6-0.5,0.8-0.7c0.1-0.3,0.2-0.6,0.2-0.9
			c0-0.4-0.1-0.8-0.3-1.1c-0.2-0.3-0.4-0.5-0.7-0.7c-0.3-0.2-0.6-0.3-1-0.4c-0.4-0.1-0.7-0.1-1.1-0.1c-0.7,0-1.3,0.1-1.9,0.4
			s-1,0.6-1.4,1c-0.4,0.4-0.7,0.9-0.9,1.4C67.8,124.1,67.6,124.7,67.6,125.3z"/>
		<path class="st0" d="M87.7,131v-6.2c0-1.2-0.3-2.2-0.9-2.9c-0.6-0.7-1.6-1-2.8-1s-2.2,0.3-2.8,1c-0.6,0.7-0.9,1.7-0.9,2.9v6.2
			h-1.5v-6.7c0-0.7,0.1-1.4,0.4-1.9c0.2-0.6,0.6-1.1,1-1.5c0.5-0.4,1-0.7,1.6-1c0.6-0.2,1.4-0.3,2.2-0.3c0.8,0,1.5,0.1,2.2,0.3
			c0.7,0.2,1.2,0.6,1.7,1c0.5,0.4,0.8,0.9,1,1.5c0.2,0.6,0.4,1.2,0.4,1.9v6.7H87.7z"/>
		<path class="st0" d="M93.6,121.3v6.5c0,0.8,0.2,1.4,0.7,1.8c0.4,0.3,1,0.5,1.7,0.5c0.5,0,0.9-0.1,1.3-0.2c0.4-0.1,0.7-0.3,0.9-0.4
			l0.7,1c-0.1,0.1-0.2,0.2-0.4,0.3c-0.2,0.1-0.4,0.2-0.7,0.3c-0.3,0.1-0.6,0.2-0.9,0.3c-0.4,0.1-0.7,0.1-1.2,0.1
			c-0.6,0-1.1-0.1-1.6-0.2c-0.4-0.2-0.8-0.4-1.1-0.7c-0.3-0.3-0.5-0.6-0.6-1c-0.1-0.4-0.2-0.8-0.2-1.3v-10.4c0-0.2,0.1-0.4,0.2-0.6
			c0.1-0.1,0.3-0.2,0.6-0.2c0.1,0,0.3,0,0.4,0.1c0.1,0,0.2,0.1,0.3,0.1v2.9h4c0.3,0,0.5,0.1,0.7,0.2c0.1,0.1,0.2,0.3,0.2,0.5
			c0,0.1,0,0.2,0,0.3c0,0.1-0.1,0.2-0.1,0.3H93.6z"/>
		<path class="st0" d="M111.2,125.5c0,0.8-0.2,1.6-0.5,2.3c-0.3,0.7-0.7,1.3-1.2,1.9c-0.5,0.5-1.2,1-1.9,1.3
			c-0.7,0.3-1.5,0.5-2.4,0.5c-0.9,0-1.7-0.2-2.4-0.5c-0.7-0.3-1.4-0.7-1.9-1.3c-0.5-0.5-0.9-1.2-1.2-1.9c-0.3-0.7-0.5-1.5-0.5-2.3
			c0-0.8,0.1-1.6,0.5-2.3c0.3-0.7,0.7-1.3,1.2-1.9c0.5-0.5,1.2-0.9,1.9-1.2c0.7-0.3,1.5-0.5,2.4-0.5c0.9,0,1.7,0.2,2.4,0.5
			c0.7,0.3,1.4,0.7,1.9,1.2c0.5,0.5,0.9,1.2,1.2,1.9C111,123.9,111.2,124.6,111.2,125.5z M109.6,125.5c0-0.6-0.1-1.2-0.3-1.8
			c-0.2-0.6-0.5-1.1-0.9-1.5c-0.4-0.4-0.9-0.7-1.4-1c-0.5-0.2-1.1-0.3-1.8-0.3c-0.7,0-1.3,0.1-1.8,0.3c-0.5,0.2-1,0.6-1.4,1
			c-0.4,0.4-0.7,0.9-0.9,1.5c-0.2,0.6-0.3,1.2-0.3,1.8c0,0.6,0.1,1.2,0.3,1.8c0.2,0.6,0.5,1.1,0.9,1.5c0.4,0.4,0.8,0.7,1.4,1
			c0.5,0.2,1.1,0.4,1.8,0.4c0.7,0,1.3-0.1,1.8-0.4c0.5-0.2,1-0.6,1.4-1c0.4-0.4,0.7-0.9,0.9-1.5
			C109.5,126.7,109.6,126.1,109.6,125.5z"/>
		<path class="st0" d="M121,120.7c0,0.2,0,0.3-0.1,0.4c-0.1,0.1-0.2,0.2-0.2,0.3c-0.3-0.1-0.6-0.2-1-0.3c-0.4-0.1-0.8-0.2-1.4-0.2
			c-0.6,0-1.1,0.1-1.5,0.2c-0.4,0.2-0.7,0.4-1,0.7c-0.3,0.3-0.4,0.7-0.5,1.1c-0.1,0.4-0.2,0.9-0.2,1.5v6.6h-1.5v-7.3
			c0-1.3,0.4-2.3,1.2-3c0.8-0.7,1.9-1.1,3.4-1.1c0.8,0,1.5,0.1,2,0.3C120.7,120,121,120.3,121,120.7z"/>
		<path class="st0" d="M133,130.2c0,1-0.1,1.8-0.4,2.5c-0.3,0.7-0.7,1.3-1.1,1.7c-0.5,0.5-1.1,0.8-1.8,1c-0.7,0.2-1.5,0.3-2.4,0.3
			c-1.1,0-2.1-0.1-2.8-0.3c-0.7-0.2-1.3-0.3-1.6-0.5l0.4-1.2c0.3,0.1,0.8,0.3,1.4,0.4c0.7,0.2,1.5,0.2,2.5,0.2
			c0.6,0,1.1-0.1,1.6-0.2c0.5-0.1,1-0.3,1.4-0.6c0.4-0.3,0.7-0.7,0.9-1.2c0.2-0.5,0.3-1.2,0.3-2v-1c-0.3,0.6-0.8,1-1.5,1.4
			s-1.5,0.5-2.5,0.5c-1.6,0-2.9-0.4-3.8-1.3c-0.9-0.9-1.3-2-1.3-3.5v-5.9c0-0.2,0.1-0.4,0.2-0.6c0.1-0.1,0.3-0.2,0.6-0.2
			c0.1,0,0.3,0,0.4,0.1c0.1,0,0.2,0.1,0.3,0.1v6.2c0,1.2,0.3,2.1,0.9,2.8c0.6,0.7,1.5,1,2.8,1c1.3,0,2.3-0.4,2.9-1.1
			c0.6-0.7,0.9-1.7,0.9-2.9v-5.4c0-0.2,0.1-0.4,0.2-0.6c0.1-0.1,0.3-0.2,0.6-0.2c0.1,0,0.3,0,0.4,0.1c0.1,0,0.2,0.1,0.3,0.1V130.2z"
			/>
	</g>
</g>
</svg>
