<?xml version="1.0" ?><svg height="64" viewBox="0 0 64 64" width="64" xmlns="http://www.w3.org/2000/svg"><defs><style>.cls-1{fill:none;stroke:#000;stroke-linejoin:round;stroke-width:2px;}</style></defs><title/><g data-name="11-Server and Network" id="_11-Server_and_Network"><path class="cls-1" d="M11,63H3a2,2,0,0,1-2-2V3A2,2,0,0,1,3,1H61a2,2,0,0,1,2,2V61a2,2,0,0,1-2,2H53"/><line class="cls-1" x1="1" x2="63" y1="9" y2="9"/><line class="cls-1" x1="4" x2="6" y1="5" y2="5"/><line class="cls-1" x1="8" x2="10" y1="5" y2="5"/><line class="cls-1" x1="58" x2="60" y1="5" y2="5"/><rect class="cls-1" height="16" rx="1" ry="1" width="42" x="11" y="23"/><rect class="cls-1" height="16" rx="1" ry="1" width="42" x="11" y="43"/><rect class="cls-1" height="4" width="36" x="14" y="39"/><rect class="cls-1" height="4" width="36" x="14" y="59"/><polyline class="cls-1" points="15 32 15 27 33 27 33 32"/><line class="cls-1" x1="14" x2="34" y1="35" y2="35"/><line class="cls-1" x1="19" x2="21" y1="31" y2="31"/><line class="cls-1" x1="23" x2="25" y1="31" y2="31"/><line class="cls-1" x1="27" x2="29" y1="31" y2="31"/><polyline class="cls-1" points="31 52 31 47 49 47 49 52"/><line class="cls-1" x1="30" x2="50" y1="55" y2="55"/><line class="cls-1" x1="35" x2="37" y1="51" y2="51"/><line class="cls-1" x1="39" x2="41" y1="51" y2="51"/><line class="cls-1" x1="43" x2="45" y1="51" y2="51"/><circle class="cls-1" cx="43" cy="31" r="4"/><circle class="cls-1" cx="21" cy="51" r="4"/><line class="cls-1" x1="31" x2="33" y1="16" y2="16"/><line class="cls-1" x1="35" x2="37" y1="16" y2="16"/><line class="cls-1" x1="27" x2="29" y1="16" y2="16"/><line class="cls-1" x1="23" x2="25" y1="16" y2="16"/><line class="cls-1" x1="39" x2="41" y1="16" y2="16"/><polyline class="cls-1" points="9 13 5 13 5 17"/><polyline class="cls-1" points="59 17 59 13 55 13"/></g></svg>