<svg width="5073" height="4341" viewBox="0 0 5073 4341" fill="none" xmlns="http://www.w3.org/2000/svg">
<path d="M1985.99 698.324C1556.78 867.433 1194.81 1151.59 971.551 1494.67C748.295 1837.75 679.991 2214.81 780.13 2551.38C880.268 2887.96 1141.57 3159.58 1512.42 3312.6C1883.28 3465.62 2336.73 3488.92 2783.21 3377.89C3229.7 3266.86 3636.77 3029.58 3924.02 2712.9C4211.27 2396.23 4357.82 2023.19 4334.72 1667.45C4311.63 1311.71 4120.57 999.149 3799.29 791.483C3478 583.816 3049.84 496.149 2599.37 545.793L2596.78 604.757C3028.86 557.14 3439.53 641.227 3747.7 840.413C4055.87 1039.6 4239.12 1339.4 4261.27 1680.61C4283.42 2021.82 4142.86 2379.62 3867.34 2683.37C3591.82 2987.11 3201.38 3214.7 2773.12 3321.2C2344.87 3427.69 1909.94 3405.35 1554.23 3258.58C1198.52 3111.8 947.888 2851.28 851.84 2528.44C755.791 2205.61 821.305 1843.95 1035.44 1514.88C1249.58 1185.81 1596.78 913.261 2008.46 751.058L1985.99 698.324Z" fill="white" fill-opacity="0.5"/>
<ellipse rx="1072.85" ry="1352.04" transform="matrix(0.862263 0.506461 -0.714328 0.699811 2575.41 2851.24)" fill="#C4C4C4" fill-opacity="0.2"/>
<ellipse rx="934.281" ry="1527.63" transform="matrix(0.479514 -0.877534 0.953954 0.299954 2981.24 2360.53)" fill="#C4C4C4" fill-opacity="0.1"/>
</svg>
