<svg width="10150" height="7763" viewBox="0 0 10150 7763" fill="none" xmlns="http://www.w3.org/2000/svg">
<g clip-path="url(#clip0)">
<path d="M1785.4 1534H2053.25L1383.63 2689.09L714 1534H1226.26L1383.63 1801.85L1537.64 1534H1785.4Z" fill="#41B883"/>
<path d="M714 1534L1383.63 2689.09L2053.25 1534H1785.4L1383.63 2227.05L978.502 1534H714Z" fill="#41B883"/>
<path d="M978.502 1534L1383.63 2230.4L1785.4 1534H1537.64L1383.63 1801.85L1226.26 1534H978.502Z" fill="#35495E"/>
</g>
<path d="M5910 1986.34L5989.74 1353.73L5468.56 1183L4947.38 1353.73L5027.17 1986.34L5468.56 2211L5910 1986.34ZM5264.45 1967.32H5142.3L5468.56 1296.55L5795.1 1967.32H5673.19L5607.48 1817.23H5330.16L5264.45 1967.32Z" fill="#F44336"/>
<path d="M5372.99 1724.75H5564.12L5468.55 1514.57L5372.99 1724.75Z" fill="#F44336"/>
<path d="M5468.56 1296.55L5142.3 1967.32H5264.45L5330.16 1817.23H5468.56V1724.75H5372.99L5468.56 1514.57V1296.55Z" fill="#DEDEDE"/>
<path d="M5468.56 1183L4947.38 1353.73L5027.17 1986.34L5468.56 2211V1817.23H5330.16L5264.45 1967.32H5142.3L5468.56 1296.55V1183Z" fill="#D43A2F"/>
<path d="M5468.55 1514.57L5372.99 1724.75H5468.55V1514.57Z" fill="#D43A2F"/>
<path d="M5994.33 6761.36C5994.33 6897.06 6126.83 7023.73 6335.73 7095.13C6294.02 7305.13 6328.26 7474.4 6442.63 7540.35C6560.18 7608.15 6735.31 7561.22 6901.53 7415.92C7063.56 7555.35 7227.31 7610.23 7341.58 7544.08C7459.02 7476.1 7494.73 7295.35 7451.87 7078.79C7669.45 7006.86 7791.16 6898.84 7791.16 6761.36C7791.16 6628.82 7658.41 6514.15 7452.32 6443.21C7498.48 6217.7 7459.37 6052.54 7340.27 5983.86C7225.44 5917.65 7059.79 5975.36 6895.38 6118.43C6724.33 5966.57 6560.31 5920.21 6441.33 5989.08C6326.62 6055.48 6293.88 6227.83 6335.73 6441.72C6133.88 6512.09 5994.33 6629.35 5994.33 6761.36Z" fill="white"/>
<path d="M7408.68 6513.66C7391.7 6507.83 7374.57 6502.43 7357.31 6497.47C7360.17 6485.84 7362.82 6474.16 7365.25 6462.44C7404.13 6273.68 7378.71 6121.62 7291.89 6071.57C7208.64 6023.56 7072.5 6073.62 6935 6193.27C6921.45 6205.09 6908.2 6217.24 6895.26 6229.73C6886.6 6221.43 6877.79 6213.29 6868.82 6205.31C6724.72 6077.36 6580.28 6023.45 6493.55 6073.65C6410.38 6121.79 6385.75 6264.75 6420.76 6443.63C6424.24 6461.34 6428.17 6478.97 6432.55 6496.48C6412.11 6502.29 6392.37 6508.47 6373.49 6515.05C6204.55 6573.95 6096.65 6666.27 6096.65 6762.01C6096.65 6860.91 6212.47 6960.1 6388.45 7020.24C6402.71 7025.09 6417.1 7029.59 6431.6 7033.73C6426.89 7052.6 6422.71 7071.59 6419.06 7090.7C6385.68 7266.47 6411.75 7406.04 6494.7 7453.88C6580.37 7503.28 6724.15 7452.5 6864.17 7330.12C6875.24 7320.44 6886.35 7310.18 6897.47 7299.43C6911.48 7312.95 6925.86 7326.07 6940.6 7338.78C7076.23 7455.48 7210.17 7502.61 7293.04 7454.64C7378.64 7405.09 7406.45 7255.16 7370.33 7072.74C7367.58 7058.81 7364.36 7044.58 7360.76 7030.08C7370.86 7027.1 7380.77 7024.03 7390.44 7020.82C7573.38 6960.21 7692.4 6862.23 7692.4 6762.01C7692.4 6665.92 7581.03 6572.98 7408.68 6513.66V6513.66Z" fill="#53C1DE"/>
<path d="M7369 6956.12C7360.28 6959.01 7351.32 6961.8 7342.2 6964.5C7322 6900.57 7294.74 6832.58 7261.39 6762.35C7293.22 6693.78 7319.42 6626.67 7339.05 6563.15C7355.37 6567.88 7371.22 6572.86 7386.49 6578.12C7534.16 6628.94 7624.23 6704.1 7624.23 6762.01C7624.23 6823.7 7526.95 6903.78 7369 6956.12H7369ZM7303.46 7085.98C7319.43 7166.64 7321.71 7239.57 7311.13 7296.58C7301.62 7347.81 7282.51 7381.96 7258.88 7395.64C7208.59 7424.75 7101.04 7386.91 6985.07 7287.11C6971.77 7275.67 6958.37 7263.45 6944.94 7250.53C6989.9 7201.35 7034.84 7144.18 7078.7 7080.69C7155.85 7073.85 7228.73 7062.65 7294.82 7047.38C7298.07 7060.51 7300.97 7073.39 7303.46 7085.98V7085.98ZM6640.67 7390.61C6591.54 7407.96 6552.41 7408.46 6528.76 7394.82C6478.42 7365.8 6457.5 7253.72 6486.04 7103.41C6489.43 7085.65 6493.32 7067.98 6497.69 7050.43C6563.05 7064.89 6635.4 7075.29 6712.73 7081.56C6756.88 7143.68 6803.12 7200.79 6849.71 7250.79C6839.81 7260.37 6829.67 7269.71 6819.31 7278.79C6757.4 7332.91 6695.35 7371.3 6640.68 7390.61H6640.67ZM6410.49 6955.74C6332.68 6929.14 6268.42 6894.58 6224.38 6856.87C6184.8 6822.97 6164.81 6789.32 6164.81 6762.01C6164.81 6703.91 6251.45 6629.8 6395.93 6579.42C6414.07 6573.13 6432.38 6567.37 6450.85 6562.14C6470.83 6627.09 6497.02 6695 6528.63 6763.67C6496.61 6833.37 6470.04 6902.35 6449.89 6968.07C6436.66 6964.28 6423.52 6960.17 6410.49 6955.74V6955.74ZM6487.66 6430.54C6457.66 6277.27 6477.58 6161.66 6527.7 6132.65C6581.09 6101.75 6699.13 6145.81 6823.55 6256.28C6831.51 6263.34 6839.49 6270.74 6847.5 6278.39C6801.14 6328.17 6755.33 6384.84 6711.56 6446.6C6636.51 6453.56 6564.67 6464.73 6498.62 6479.7C6494.55 6463.4 6490.9 6447.01 6487.66 6430.53V6430.54ZM7175.99 6600.5C7160.39 6573.55 7144.21 6546.95 7127.46 6520.7C7178.38 6527.12 7227.16 6535.67 7272.97 6546.13C7259.22 6590.2 7242.08 6636.29 7221.89 6683.53C7207.14 6655.55 7191.84 6627.87 7175.99 6600.5V6600.5ZM6895.29 6327.1C6926.73 6361.16 6958.22 6399.2 6989.19 6440.46C6926.36 6437.49 6863.42 6437.48 6800.59 6440.42C6831.59 6399.53 6863.35 6361.56 6895.29 6327.1V6327.1ZM6612.78 6600.96C6597.13 6628.12 6582.11 6655.63 6567.74 6683.48C6547.89 6636.4 6530.9 6590.11 6517.03 6545.41C6562.56 6535.22 6611.12 6526.89 6661.7 6520.57C6644.77 6546.98 6628.46 6573.79 6612.78 6600.96V6600.96ZM6663.16 7008.32C6610.9 7002.49 6561.61 6994.58 6516.09 6984.68C6530.18 6939.18 6547.54 6891.9 6567.82 6843.8C6582.25 6871.68 6597.33 6899.21 6613.06 6926.37C6629.1 6954.08 6645.81 6981.41 6663.16 7008.32V7008.32ZM6897.17 7201.74C6864.86 7166.88 6832.64 7128.32 6801.16 7086.84C6831.71 7088.04 6862.86 7088.65 6894.52 7088.65C6927.05 7088.65 6959.21 7087.92 6990.85 7086.51C6959.78 7128.74 6928.4 7167.36 6897.17 7201.74ZM7222.54 6841.35C7243.87 6889.97 7261.85 6937 7276.13 6981.72C7229.86 6992.28 7179.91 7000.78 7127.27 7007.1C7144.14 6980.36 7160.47 6953.29 7176.26 6925.9C7192.31 6898.06 7207.74 6869.88 7222.54 6841.35V6841.35ZM7117.21 6891.85C7093.04 6933.84 7067.5 6975.03 7040.65 7015.36C6993.31 7018.74 6944.38 7020.49 6894.52 7020.49C6844.87 7020.49 6796.56 7018.94 6750.04 7015.93C6722.5 6975.69 6696.48 6934.42 6672.06 6892.22C6647.74 6850.24 6625.03 6807.35 6603.98 6763.65C6624.98 6719.93 6647.62 6677.02 6671.85 6635.01V6635.02C6696.07 6593 6721.88 6551.91 6749.23 6511.85C6796.68 6508.26 6845.34 6506.38 6894.53 6506.38C6943.94 6506.38 6992.66 6508.28 7040.1 6511.89C7067.17 6551.89 7092.81 6592.84 7116.99 6634.65C7141.3 6676.57 7164.25 6719.27 7185.78 6762.68C7164.47 6806.54 7141.6 6849.62 7117.22 6891.85H7117.21ZM7257.84 6130.62C7311.27 6161.44 7332.05 6285.71 7298.48 6448.68C7296.28 6459.3 7293.89 6469.87 7291.31 6480.4C7225.1 6465.13 7153.21 6453.76 7077.94 6446.69C7034.09 6384.26 6988.66 6327.49 6943.05 6278.35C6955.01 6266.83 6967.24 6255.61 6979.75 6244.69C7097.56 6142.17 7207.67 6101.69 7257.84 6130.62V6130.62Z" fill="white"/>
<path d="M6894.52 6619.52C6973.22 6619.52 7037.02 6683.32 7037.02 6762.01C7037.02 6840.71 6973.22 6904.51 6894.52 6904.51C6815.83 6904.51 6752.03 6840.71 6752.03 6762.01C6752.03 6683.32 6815.83 6619.52 6894.52 6619.52" fill="#53C1DE"/>
<path d="M4144.56 6224L3448.96 5820.52C3405.14 5795.56 3347.73 5795.56 3303.56 5820.52L2602.53 6224C2557.32 6250.01 2526.58 6298.91 2526.58 6351.21V7157.1C2526.58 7209.4 2557.97 7258.31 2603.19 7284.47L2788.02 7389.86C2876.69 7433.54 2901.25 7433.54 2941.59 7433.54C3072.92 7433.54 3141.12 7354.13 3141.12 7215.64V6420.03C3141.13 6408.79 3148.15 6392.07 3137.1 6392.07H3048.51C3037.29 6392.07 3015.07 6408.79 3015.07 6420.01V7215.62C3015.07 7277.01 2958.09 7338.11 2854.31 7286.22L2663.29 7175.71C2656.64 7172.08 2652.64 7164.79 2652.64 7157.1V6351.21C2652.64 6343.62 2659.94 6335.99 2666.68 6332.1L3365.98 5929.31C3372.52 5925.61 3381.77 5925.61 3388.28 5929.31L4081.04 6332C4087.67 6335.99 4086.62 6343.38 4086.62 6351.21V7157.1C4086.62 7164.79 4088.07 7172.27 4081.53 7175.97L3386.09 7579C3380.13 7582.57 3372.38 7582.57 3365.84 7579L3187.51 7472.65C3182.13 7469.53 3175.66 7468.41 3170.49 7471.29C3120.93 7499.39 3111.73 7503.12 3065.24 7519.24C3053.79 7523.23 3036.89 7530.15 3071.67 7549.64L3304.86 7687.58C3327.17 7700.5 3352.56 7707.22 3378.08 7707.22C3403.96 7707.22 3429.28 7700.5 3451.61 7687.58L4144.57 7284.47C4189.82 7258.12 4212.68 7209.4 4212.68 7157.1V6351.21C4212.66 6298.91 4189.8 6250.14 4144.56 6224V6224ZM3593.81 7029.4C3409.02 7029.4 3368.33 6978.42 3354.76 6886.54C3353.15 6876.64 3344.77 6864.81 3334.69 6864.81H3244.39C3233.22 6864.81 3224.22 6878.36 3224.22 6889.48C3224.22 7007.13 3288.2 7149.67 3593.81 7149.67C3815.02 7149.67 3941.87 7063.72 3941.87 6911.59C3941.87 6760.76 3839.96 6721.17 3625.42 6692.78C3408.56 6664.11 3386.53 6649.63 3386.53 6598.83C3386.53 6556.94 3405.19 6501.08 3565.76 6501.08C3709.22 6501.08 3762.1 6531.87 3783.86 6628.58C3785.74 6637.67 3794.04 6644.2 3803.42 6644.2H3894.09C3899.67 6644.2 3904.98 6641.94 3908.88 6637.96C3912.68 6633.67 3914.67 6628.3 3914.18 6622.53C3900.11 6455.98 3789.49 6378.38 3565.74 6378.38C3366.69 6378.38 3247.97 6462.43 3247.97 6603.32C3247.97 6756.14 3366.11 6798.37 3557.17 6817.26C3785.74 6839.67 3803.51 6873.08 3803.51 6918.03C3803.51 6996.13 3740.83 7029.4 3593.81 7029.4Z" fill="#83CD29"/>
<path d="M2968.91 1109.5C2977.47 1121.87 2982.7 1120.92 2989.36 1118.06C2996.01 1115.21 3338.52 999.613 3348.98 995.811C3359.44 992.005 3356.12 988.675 3352.79 983.439C3349.46 978.207 3235.29 823.131 3229.58 814.094C3223.87 805.056 3221.02 806.957 3211.98 809.812L2848.91 904.287C2848.91 904.287 2960.34 1097.13 2968.91 1109.5ZM3378 951.586V770.07C3337.15 780.953 3285.49 794.713 3265.09 800.137C3295.86 841.305 3343.96 905.734 3378 951.586ZM3264.74 576.574C3259.14 577.846 3135.24 600.237 3127.61 601.251C3119.98 602.27 3122.52 606.594 3125.58 610.918L3234.61 760.518C3234.61 760.518 3367.92 727.446 3376.06 725.665C3376.72 725.519 3377.37 725.365 3378 725.206V705.397C3353.77 674.671 3287.75 591.011 3282.04 583.193C3275.18 573.779 3270.34 575.307 3264.74 576.574V576.574Z" fill="#F35045"/>
<path d="M2485.17 341.589C2512 340.369 2514.45 346.474 2526.24 363.955L2822.37 859.047L3194.73 769.847C3174.1 740.602 3080.44 607.819 3071.39 595.146C3061.21 580.898 3071.64 574.284 3088.18 571.488C3104.72 568.688 3247.19 544.773 3259.4 542.992C3271.61 541.211 3281.28 536.887 3301.12 560.802C3311.28 573.038 3345.7 615.902 3378 656.081V424.5C3378 367.893 3357.9 319.49 3317.71 279.293C3277.51 239.1 3229.11 219 3172.5 219H2487.5C2430.89 219 2382.49 239.1 2342.29 279.293C2319.24 302.356 2302.83 328.116 2293 356.574C2360.12 351.059 2466.4 342.446 2485.18 341.589H2485.17Z" fill="#F35045"/>
<path d="M3002.49 1176.13C2971.09 1185.65 2957.01 1190.37 2936.56 1161.83C2921.24 1140.45 2838.4 991.248 2797.78 917.696C2720.91 937.826 2580.24 974.542 2539.67 984.291C2500.07 993.803 2483.16 970.064 2476.66 955.435C2472.1 945.169 2356.02 694.895 2282 534.314V1109.5C2282 1166.11 2302.1 1214.51 2342.29 1254.71C2382.49 1294.9 2430.89 1315 2487.5 1315H3172.5C3229.11 1315 3277.51 1294.9 3317.71 1254.71C3357.9 1214.51 3378 1166.11 3378 1109.5V1041.94C3293.92 1072.69 3023.64 1169.72 3002.49 1176.13Z" fill="#F35045"/>
<path d="M2540.64 926.639C2551.77 924.092 2760.32 874.181 2764.78 873.226C2769.23 872.272 2772.09 869.729 2767.32 861.466C2762.55 853.203 2489.32 381.58 2489.32 381.58C2486.8 377.252 2487.52 375.809 2480.66 376.169C2474.55 376.494 2319.95 390.289 2284.16 393.277C2283.11 400.845 2282.45 408.463 2282.19 416.1C2318.52 490.487 2527.07 920.59 2528.24 924.092C2529.51 927.911 2529.51 929.182 2540.64 926.639V926.639Z" fill="#F35045"/>
<path d="M2538.5 2733.94C2685.1 2733.94 2803.94 2615.1 2803.94 2468.5C2803.94 2321.9 2685.1 2203.05 2538.5 2203.05C2391.9 2203.05 2273.05 2321.9 2273.05 2468.5C2273.05 2615.1 2391.9 2733.94 2538.5 2733.94Z" fill="#4E8EF7"/>
<path d="M3080.19 2018.08C3080.22 2000.58 3075.2 1983.43 3065.75 1968.7C3056.29 1953.97 3042.79 1942.27 3026.87 1935.01C3010.94 1927.74 2993.26 1925.21 2975.93 1927.73C2958.61 1930.24 2942.38 1937.69 2929.17 1949.19C2797.65 1850.22 2633.49 1804.8 2469.8 1822.09C2306.11 1839.39 2155.07 1918.1 2047.12 2042.36C1939.18 2166.62 1882.37 2327.19 1888.14 2491.69C1893.91 2656.19 1961.84 2812.38 2078.23 2928.77C2194.62 3045.16 2350.81 3113.09 2515.31 3118.86C2679.81 3124.63 2840.38 3067.82 2964.64 2959.88C3088.9 2851.93 3167.62 2700.89 3184.91 2537.2C3202.2 2373.51 3156.78 2209.35 3057.81 2077.83C3072.25 2061.28 3080.2 2040.05 3080.19 2018.08V2018.08ZM2538.5 3096.84C2438.95 3096.92 2340.8 3073.34 2252.15 3028.06C2163.49 2982.77 2086.87 2917.07 2028.59 2836.36C1970.31 2755.65 1932.03 2662.25 1916.93 2563.85C1901.82 2465.45 1910.31 2364.87 1941.7 2270.4C1973.09 2175.92 2026.47 2090.26 2097.46 2020.46C2168.44 1950.67 2255 1898.74 2349.99 1868.95C2444.98 1839.16 2545.69 1832.37 2643.82 1849.14C2741.95 1865.91 2834.69 1905.75 2914.4 1965.39C2901.95 1982.95 2896.11 2004.35 2897.92 2025.8C2899.73 2047.25 2909.07 2067.37 2924.3 2082.6C2939.52 2097.82 2959.64 2107.16 2981.09 2108.97C3002.54 2110.79 3023.94 2104.95 3041.5 2092.49C3111.25 2185.87 3153.65 2296.8 3163.96 2412.9C3174.27 2528.99 3152.1 2645.66 3099.9 2749.87C3047.71 2854.08 2967.57 2941.72 2868.42 3003C2769.28 3064.27 2655.05 3096.76 2538.5 3096.84Z" fill="#4E8EF7"/>
<path d="M9732.56 5388.26L9215.68 5680.88V5452.96L9537.25 5275.88L9732.56 5388.26ZM9768 5356.27V4744.82L9578.86 4854.17V5247.12L9767.9 5356.17L9768 5356.27ZM8653.44 5388.26L9169.81 5680.67V5452.96L8848.14 5275.88L8653.44 5388.26ZM8618 5356.27V4744.82L8807.14 4854.17V5247.12L8618 5356.27ZM8640.17 4705.23L9170.32 4405.12V4625.45L8830.63 4812.25L8827.89 4813.77L8640.17 4705.23ZM9745.62 4705.23L9215.68 4405.12V4625.45L9555.37 4812.15L9558.11 4813.67L9745.82 4705.23H9745.62ZM9170.32 5401.12L8852.5 5226.26V4880.19L9170.32 5063.25V5401.12ZM9215.68 5401.12L9533.5 5226.47V4880.19L9215.68 5063.25V5401.12ZM8874.06 4840.5L9193 4664.93L9511.94 4840.5L9193 5024.37L8874.06 4840.5Z" fill="#1C78C0"/>
<path d="M8369.63 1109.84C8312.53 1110.5 8262.54 1139.97 8220.3 1166.28C8141.37 1215.09 8101.9 1211.93 8101.9 1211.93L8100.58 1209.7C8095.19 1200.88 8125.84 1121.81 8091.5 1027.61C8054.4 924.6 7995.46 899.734 8000.2 891.841C8020.33 857.766 8070.72 803.694 8090.85 702.917C8102.82 641.872 8099.66 541.358 8072.56 488.733C8067.56 478.998 8022.83 505.047 8022.83 505.047C8022.83 505.047 7980.99 411.769 7969.28 404.27C7931.52 380.063 7890.34 504.389 7890.34 504.389C7861.83 501.595 7833.06 505.492 7806.31 515.769C7779.57 526.047 7755.59 542.422 7736.29 563.592C7721.97 577.378 7704.62 587.607 7685.63 593.457C7680.24 595.299 7673.66 595.036 7657.35 639.109C7632.35 705.811 7699.97 781.328 7699.97 781.328C7699.97 781.328 7619.33 838.295 7589.46 909.207C7569.51 957.824 7561.62 1010.54 7566.44 1062.87C7566.44 1062.87 7509.08 1112.6 7505.39 1163.91C7501.97 1199.85 7510.13 1235.95 7528.68 1266.93C7530.13 1270.02 7532.18 1272.79 7534.72 1275.07C7537.25 1277.36 7540.22 1279.11 7543.45 1280.22C7546.68 1281.34 7550.09 1281.8 7553.5 1281.57C7556.91 1281.34 7560.23 1280.43 7563.28 1278.9C7563.28 1278.9 7525.13 1323.37 7560.78 1342.18C7593.28 1359.15 7648.01 1368.49 7676.95 1339.68C7698 1318.63 7702.21 1271.66 7709.97 1252.45C7711.81 1247.98 7718.13 1259.95 7724.18 1265.61C7729.76 1270.49 7735.75 1274.89 7742.07 1278.77C7742.07 1278.77 7690.76 1300.87 7711.81 1351.26C7718.79 1367.97 7743.65 1378.62 7784.31 1378.36C7799.44 1378.36 7965.34 1368.89 8009.54 1358.23C8022.9 1356.11 8035.08 1349.3 8043.88 1339.02C8115.66 1317.67 8184.21 1286.69 8247.67 1246.93C8310.03 1206.27 8335.55 1195.22 8385.94 1183.25C8427.51 1173.38 8424.75 1108.92 8369.63 1109.84Z" fill="#2C8EBB"/>
<path d="M7906 74.3125C7744.67 74.3125 7586.97 122.152 7452.83 211.781C7318.69 301.41 7214.14 428.803 7152.4 577.85C7090.67 726.897 7074.51 890.905 7105.99 1049.13C7137.46 1207.36 7215.15 1352.7 7329.22 1466.78C7443.3 1580.85 7588.64 1658.54 7746.87 1690.01C7905.1 1721.49 8069.1 1705.33 8218.15 1643.6C8367.2 1581.86 8494.59 1477.31 8584.22 1343.17C8673.85 1209.03 8721.69 1051.33 8721.69 890C8721.69 673.666 8635.75 466.193 8482.78 313.222C8329.81 160.251 8122.33 74.3125 7906 74.3125V74.3125ZM8396.73 1229.83C8352.66 1240.48 8332.13 1248.77 8272.93 1287.19C8209.02 1327.31 8140.22 1359.05 8068.22 1381.65C8054.3 1393.06 8037.9 1401.04 8020.33 1404.94C7970.2 1417.17 7798.25 1426.38 7784.7 1426.38H7781.54C7728.92 1426.38 7699.05 1410.07 7683 1392.96C7638.27 1415.33 7580.38 1406.12 7538.28 1383.89C7528.2 1378.94 7519.4 1371.74 7512.55 1362.84C7505.71 1353.94 7501.01 1343.59 7498.81 1332.58C7497.25 1323.61 7497.25 1314.44 7498.81 1305.47C7494.94 1301.43 7491.46 1297.03 7488.42 1292.32C7464.52 1252.55 7454.09 1206.13 7458.69 1159.97C7462.5 1110.89 7496.45 1067.08 7518.55 1043.8C7516.71 991.199 7525.95 938.802 7545.65 890C7566.82 844.611 7597.4 804.248 7635.38 771.594C7613.67 735.019 7591.57 678.711 7613.01 621.349C7628.4 580.433 7641.03 557.673 7668.79 547.938C7680.91 544.441 7692.17 538.434 7701.82 530.308C7742.3 486.328 7798.19 459.656 7857.85 455.844C7860.35 449.529 7863.24 442.688 7866.4 436.636C7887.45 391.904 7909.82 366.776 7936 357.698C7945.48 354.152 7955.67 352.9 7965.73 354.043C7975.79 355.186 7985.44 358.693 7993.88 364.276C8002.44 369.933 8013.36 377.433 8045.19 443.214C8057.25 438.894 8070.36 438.434 8082.69 441.898C8089.42 443.731 8095.69 446.948 8101.1 451.343C8106.52 455.738 8110.95 461.214 8114.13 467.421C8146.63 529.782 8150.97 640.952 8136.76 712.391C8124.15 775.642 8097.94 835.393 8059.93 887.5C8093.92 922.866 8119.82 965.197 8135.84 1011.56C8151.49 1055.43 8157.81 1102.07 8154.39 1148.52C8168.53 1141.75 8182.24 1134.1 8195.44 1125.63C8235.7 1100.76 8296.48 1063.27 8368.97 1062.35C8390.96 1060.87 8412.69 1067.79 8429.78 1081.71C8446.87 1095.63 8458.05 1115.51 8461.06 1137.34C8463.81 1158 8458.74 1178.95 8446.83 1196.06C8434.93 1213.17 8417.06 1225.22 8396.73 1229.83V1229.83Z" fill="#2C8EBB"/>
<path fill-rule="evenodd" clip-rule="evenodd" d="M6045 4453.93C5744.88 4453.93 5501.51 4697.24 5501.51 4997.42C5501.51 5237.56 5657.23 5441.27 5873.18 5513.15C5900.33 5518.19 5910.3 5501.36 5910.3 5487C5910.3 5474.04 5909.8 5431.23 5909.57 5385.81C5758.37 5418.69 5726.46 5321.69 5726.46 5321.69C5701.74 5258.87 5666.12 5242.17 5666.12 5242.17C5616.8 5208.43 5669.83 5209.14 5669.83 5209.14C5724.4 5212.96 5753.15 5265.14 5753.15 5265.14C5801.62 5348.21 5880.29 5324.2 5911.3 5310.32C5916.18 5275.2 5930.27 5251.21 5945.81 5237.64C5825.09 5223.91 5698.18 5177.3 5698.18 4969.05C5698.18 4909.71 5719.42 4861.23 5754.19 4823.16C5748.54 4809.48 5729.94 4754.2 5759.45 4679.34C5759.45 4679.34 5805.08 4664.73 5908.94 4735.05C5952.3 4723 5998.8 4716.94 6045 4716.74C6091.17 4716.94 6137.7 4722.98 6181.14 4735.03C6284.88 4664.72 6330.45 4679.32 6330.45 4679.32C6360.03 4754.18 6341.43 4809.46 6335.79 4823.14C6370.64 4861.21 6391.72 4909.7 6391.72 4969.03C6391.72 5177.78 6264.58 5223.73 6143.56 5237.2C6163.06 5254.06 6180.43 5287.15 6180.43 5337.84C6180.43 5410.56 6179.8 5469.09 6179.8 5486.99C6179.8 5501.46 6189.59 5518.4 6217.13 5513.07C6432.95 5441.12 6588.5 5237.47 6588.5 4997.42C6588.49 4697.26 6345.15 4453.94 6045 4453.94V4453.93Z" fill="#181616"/>
<path d="M5707.35 5234.25C5706.16 5236.95 5701.91 5237.76 5698.04 5235.92C5694.08 5234.15 5691.87 5230.47 5693.15 5227.76C5694.32 5224.97 5698.58 5224.21 5702.51 5226.07C5706.47 5227.85 5708.72 5231.56 5707.34 5234.26L5707.35 5234.25ZM5729.37 5258.81C5726.78 5261.22 5721.72 5260.1 5718.28 5256.29C5714.71 5252.51 5714.05 5247.45 5716.69 5245.01C5719.37 5242.61 5724.28 5243.75 5727.85 5247.53C5731.39 5251.36 5732.09 5256.38 5729.38 5258.82L5729.37 5258.81ZM5750.8 5290.11C5747.47 5292.43 5742.02 5290.26 5738.65 5285.43C5735.32 5280.59 5735.32 5274.78 5738.74 5272.47C5742.1 5270.15 5747.47 5272.24 5750.89 5277.03C5754.21 5281.94 5754.21 5287.74 5750.8 5290.1V5290.11ZM5780.15 5320.36C5777.18 5323.64 5770.83 5322.76 5766.19 5318.29C5761.44 5313.9 5760.12 5307.67 5763.1 5304.39C5766.12 5301.1 5772.5 5302.01 5777.17 5306.46C5781.92 5310.83 5783.35 5317.08 5780.17 5320.35L5780.15 5320.36ZM5820.65 5337.92C5819.33 5342.17 5813.23 5344.11 5807.06 5342.29C5800.92 5340.43 5796.89 5335.45 5798.15 5331.15C5799.41 5326.85 5805.56 5324.85 5811.76 5326.78C5817.91 5328.64 5821.93 5333.59 5820.65 5337.92ZM5865.14 5341.16C5865.29 5345.65 5860.07 5349.35 5853.62 5349.44C5847.11 5349.6 5841.85 5345.96 5841.79 5341.55C5841.79 5337.02 5846.9 5333.36 5853.4 5333.24C5859.85 5333.12 5865.15 5336.72 5865.15 5341.16L5865.14 5341.16ZM5906.52 5334.13C5907.3 5338.49 5902.81 5342.98 5896.39 5344.18C5890.09 5345.35 5884.24 5342.63 5883.43 5338.3C5882.65 5333.82 5887.23 5329.33 5893.53 5328.17C5899.95 5327.06 5905.71 5329.7 5906.52 5334.14V5334.13Z" fill="#181616"/>
<path fill-rule="evenodd" clip-rule="evenodd" d="M1303.21 4923.13C1304.74 4950.04 1331.65 4937.74 1343.95 4929.28C1355.48 4920.83 1359.33 4927.74 1360.09 4911.6C1360.86 4900.84 1361.63 4890.84 1361.63 4880.08C1343.95 4878.54 1324.73 4882.39 1310.13 4893.15C1303.21 4898.53 1288.6 4916.21 1303.21 4923.13" fill="#F6D2A2"/>
<path d="M1317.81 4942.35C1312.43 4942.35 1302.44 4940.04 1300.9 4924.67C1296.29 4921.59 1294.75 4917.75 1294.75 4915.44C1293.98 4906.22 1303.98 4895.46 1309.36 4891.61C1321.66 4882.39 1337.8 4877.78 1354.71 4877.78H1364.71V4880.08C1365.48 4888.54 1364.71 4896.99 1363.94 4904.68C1363.94 4906.99 1363.94 4909.29 1363.17 4911.6C1362.4 4923.13 1360.09 4924.67 1354.71 4926.98C1352.41 4927.74 1350.1 4928.51 1346.26 4931.59C1342.41 4933.89 1329.34 4942.35 1317.81 4942.35V4942.35ZM1354.71 4882.39C1338.57 4882.39 1323.96 4887 1312.43 4895.46C1307.05 4899.3 1299.36 4908.53 1300.13 4914.68C1300.13 4916.98 1301.67 4919.29 1304.74 4920.83L1306.28 4921.59V4923.13C1307.05 4935.43 1313.2 4936.97 1317.81 4936.97C1325.5 4936.97 1336.26 4931.59 1343.18 4926.98C1347.79 4923.9 1350.87 4923.13 1353.18 4922.36C1357.02 4920.83 1357.79 4920.83 1358.56 4911.6C1358.56 4909.29 1358.56 4906.99 1359.33 4904.68C1360.09 4897.76 1360.09 4890.08 1360.09 4883.16C1357.79 4882.39 1356.25 4882.39 1354.71 4882.39V4882.39Z" fill="black"/>
<path fill-rule="evenodd" clip-rule="evenodd" d="M1303.21 4923.13C1307.05 4921.59 1311.66 4920.83 1313.97 4916.98Z" fill="#C6B198"/>
<path d="M1303.21 4925.44C1302.44 4925.44 1300.9 4924.67 1300.9 4923.9C1300.13 4922.36 1300.9 4920.82 1302.44 4920.82C1303.21 4920.82 1303.97 4920.06 1303.97 4920.06C1307.05 4918.52 1310.12 4917.75 1311.66 4915.44C1312.43 4914.67 1313.97 4913.91 1315.51 4914.67C1316.27 4915.44 1317.04 4916.98 1316.27 4918.52C1313.2 4922.36 1309.36 4923.9 1306.28 4924.67L1304.74 4925.44H1303.21Z" fill="black"/>
<path fill-rule="evenodd" clip-rule="evenodd" d="M1366.24 4597.95C1261.69 4568.74 1339.34 4435.74 1423.13 4490.33L1366.24 4597.95V4597.95Z" fill="#6AD7E5"/>
<path d="M1367.78 4601.03L1365.47 4600.26C1311.66 4584.88 1312.43 4546.44 1313.97 4534.91C1317.81 4505.7 1345.49 4474.95 1382.39 4474.95C1396.99 4474.95 1410.83 4479.56 1424.67 4488.79L1426.97 4490.33L1367.78 4601.03V4601.03ZM1382.39 4480.33C1347.79 4480.33 1322.42 4508.78 1318.58 4535.68C1314.74 4563.36 1331.65 4584.88 1364.71 4594.88L1419.29 4491.09C1407.76 4484.18 1395.46 4480.33 1382.39 4480.33V4480.33Z" fill="black"/>
<path fill-rule="evenodd" clip-rule="evenodd" d="M1829.8 4480.33C1912.06 4422.67 1987.39 4553.36 1891.3 4586.42L1829.8 4480.33V4480.33Z" fill="#6AD7E5"/>
<path d="M1890.53 4589.49L1826.73 4479.56L1829.03 4478.03C1843.64 4468.03 1858.24 4462.65 1872.85 4462.65C1908.21 4462.65 1933.58 4491.86 1938.96 4520.31C1941.27 4531.84 1943.58 4571.04 1892.84 4587.96L1890.53 4589.49ZM1833.64 4481.87L1892.84 4584.11C1922.82 4573.35 1938.19 4550.29 1933.58 4522.61C1928.97 4496.48 1905.14 4469.57 1872.85 4469.57C1859.78 4468.8 1846.71 4472.64 1833.64 4481.87Z" fill="black"/>
<path fill-rule="evenodd" clip-rule="evenodd" d="M1848.25 5258.31C1869.01 5271.38 1907.44 5310.58 1875.92 5329.8C1845.94 5357.48 1829.03 5299.05 1802.12 5291.36C1813.66 5275.99 1828.26 5261.38 1848.25 5258.31Z" fill="#F6D2A2"/>
<path d="M1859.78 5339.79C1847.48 5339.79 1836.72 5327.49 1827.49 5315.96C1819.04 5306.74 1810.58 5296.74 1801.36 5293.67L1797.51 5292.9L1799.82 5289.83C1809.04 5276.76 1824.42 5259.84 1847.48 5256H1848.25L1849.02 5256.77C1862.09 5265.22 1890.53 5289.06 1889.76 5311.35C1889.76 5319.81 1885.15 5326.73 1876.69 5332.11C1871.31 5337.49 1865.93 5339.79 1859.78 5339.79V5339.79ZM1805.97 5289.83C1815.19 5293.67 1822.88 5303.66 1830.57 5312.12C1839.79 5323.65 1849.02 5333.64 1859.01 5333.64C1863.63 5333.64 1868.24 5331.34 1872.85 5326.72H1873.62C1880.54 5322.11 1884.38 5316.73 1884.38 5309.81C1884.38 5292.13 1862.09 5269.84 1846.71 5259.84C1832.88 5263.69 1819.04 5272.91 1805.97 5289.83ZM1875.93 5332.11C1875.16 5332.11 1874.39 5331.34 1873.62 5330.57C1872.08 5327.49 1870.54 5323.65 1869.78 5320.58C1867.47 5314.43 1865.16 5308.27 1860.55 5303.66C1859.78 5302.89 1859.78 5301.36 1860.55 5299.82C1861.32 5299.05 1862.86 5299.05 1864.39 5299.82C1869.78 5305.2 1872.85 5312.12 1875.16 5319.04L1879 5328.26C1879.77 5329.8 1879 5331.34 1878.23 5332.11H1875.93V5332.11Z" fill="black"/>
<path fill-rule="evenodd" clip-rule="evenodd" d="M1473.1 5302.89C1448.5 5306.74 1434.66 5329.03 1413.91 5340.56C1394.69 5352.09 1387 5336.72 1385.46 5333.64C1382.39 5332.11 1382.39 5335.18 1377.78 5330.57C1360.09 5302.12 1396.23 5281.37 1415.44 5267.53C1442.35 5261.38 1459.26 5284.44 1473.1 5302.89" fill="#F6D2A2"/>
<path d="M1400.84 5346.71C1390.84 5346.71 1385.46 5338.26 1383.93 5335.18H1383.16C1380.85 5335.18 1379.31 5334.41 1376.24 5331.34V5330.57C1359.33 5303.66 1388.54 5282.91 1407.76 5269.07L1414.68 5264.46H1416.21C1419.29 5263.69 1421.59 5263.69 1424.67 5263.69C1447.73 5263.69 1462.34 5283.67 1474.64 5299.82L1478.48 5305.2L1473.87 5305.97C1459.26 5308.28 1448.5 5317.5 1437.74 5326.72C1430.82 5332.87 1423.9 5338.26 1416.21 5342.87C1410.06 5345.18 1405.45 5346.71 1400.84 5346.71V5346.71ZM1383.93 5330.57C1384.69 5330.57 1385.46 5330.57 1387 5331.34H1387.77L1388.54 5332.11C1390.08 5334.41 1393.92 5341.33 1401.61 5341.33C1405.45 5341.33 1409.29 5339.79 1413.14 5337.49C1420.83 5333.64 1427.74 5327.49 1433.89 5322.11C1443.89 5313.66 1454.65 5304.43 1468.49 5300.59C1456.96 5285.21 1443.12 5268.3 1423.9 5268.3C1421.59 5268.3 1419.29 5268.3 1416.98 5269.07L1410.83 5273.68C1390.84 5287.52 1366.24 5305.2 1380.85 5328.26C1381.62 5329.8 1382.39 5330.57 1383.93 5330.57V5330.57ZM1385.46 5335.95C1383.93 5335.95 1382.39 5334.41 1383.16 5332.88C1383.93 5325.19 1387.77 5319.81 1391.61 5313.66C1393.92 5310.58 1395.46 5307.51 1396.99 5304.43C1397.76 5302.89 1399.3 5302.89 1400.07 5302.89C1401.61 5303.66 1401.61 5305.2 1401.61 5305.97C1400.07 5309.81 1397.76 5312.89 1395.46 5315.96C1391.61 5321.34 1388.54 5325.96 1387.77 5332.11C1387.77 5335.18 1387 5335.95 1385.46 5335.95V5335.95Z" fill="black"/>
<path fill-rule="evenodd" clip-rule="evenodd" d="M1370.86 4561.82C1357.02 4554.9 1347.02 4544.91 1355.48 4528.76C1363.17 4514.16 1377.77 4515.69 1391.61 4522.61L1370.86 4561.82V4561.82ZM1869.77 4547.98C1883.61 4541.06 1893.61 4531.07 1885.15 4514.92C1877.46 4500.32 1862.86 4501.86 1849.02 4508.77L1869.77 4547.98Z" fill="black"/>
<path fill-rule="evenodd" clip-rule="evenodd" d="M1964.33 4919.29C1962.79 4946.19 1935.89 4933.89 1923.59 4925.44C1912.06 4916.98 1908.21 4923.9 1907.44 4907.76C1906.67 4896.99 1905.91 4887 1905.91 4876.24C1923.59 4874.7 1942.81 4878.54 1957.41 4889.31C1965.1 4895.46 1978.94 4912.37 1964.33 4919.29" fill="#F6D2A2"/>
<path d="M1950.49 4938.51C1938.96 4938.51 1925.89 4930.05 1922.05 4927.74C1918.21 4925.44 1915.9 4923.9 1913.59 4923.13C1907.44 4920.83 1905.91 4919.29 1905.14 4907.76C1905.14 4905.45 1905.14 4903.14 1904.37 4900.84C1903.6 4893.15 1902.83 4884.69 1903.6 4876.24V4873.93H1913.59C1930.51 4873.93 1946.65 4878.54 1958.95 4887.77C1964.33 4891.61 1974.32 4902.38 1973.56 4911.6C1973.56 4914.68 1972.02 4918.52 1967.41 4920.83C1965.87 4936.2 1955.87 4938.51 1950.49 4938.51V4938.51ZM1908.21 4879.31C1908.21 4886.23 1908.21 4893.92 1908.98 4900.84C1908.98 4903.14 1908.98 4905.45 1909.75 4907.76C1910.52 4916.98 1911.29 4916.98 1915.13 4918.52C1917.44 4919.29 1920.51 4920.83 1925.12 4923.13C1932.04 4927.74 1942.81 4933.13 1950.49 4933.13C1955.11 4933.13 1961.26 4931.59 1962.02 4919.29V4917.75L1963.56 4916.98C1966.64 4915.44 1968.17 4913.91 1968.17 4910.83C1968.94 4904.68 1961.26 4895.46 1955.87 4891.61C1944.34 4883.16 1928.97 4878.54 1913.59 4878.54C1912.06 4879.31 1910.52 4879.31 1908.21 4879.31V4879.31Z" fill="black"/>
<path fill-rule="evenodd" clip-rule="evenodd" d="M1964.33 4919.29C1960.49 4917.75 1955.88 4916.98 1953.57 4913.14Z" fill="#C6B198"/>
<path d="M1964.33 4922.36H1963.56L1962.03 4921.59C1958.18 4920.06 1954.34 4919.29 1952.03 4915.44C1951.26 4914.67 1951.26 4912.37 1952.8 4911.6C1953.57 4910.83 1955.88 4910.83 1956.64 4912.37C1958.18 4914.67 1961.26 4915.44 1964.33 4916.98C1965.1 4916.98 1965.87 4917.75 1965.87 4917.75C1967.41 4918.52 1968.18 4920.06 1967.41 4920.82C1966.64 4921.59 1965.1 4922.36 1964.33 4922.36Z" fill="black"/>
<path fill-rule="evenodd" clip-rule="evenodd" d="M1623.78 4425.75C1728.33 4425.75 1825.96 4440.36 1877.46 4541.06C1923.59 4653.3 1906.68 4774.76 1914.36 4893.92C1920.51 4996.16 1933.58 5113.78 1886.69 5208.34C1836.72 5307.51 1712.18 5332.88 1609.94 5329.03C1529.22 5325.96 1432.36 5299.82 1386.23 5226.02C1333.19 5139.92 1357.79 5011.54 1361.63 4915.44C1366.24 4801.67 1330.88 4687.12 1368.55 4576.43C1406.22 4460.34 1510.77 4434.21 1623.78 4425.75" fill="#6AD7E5"/>
<path d="M1627.62 5332.11H1608.4C1576.88 5331.34 1529.22 5325.96 1482.33 5306.74C1436.97 5288.29 1403.91 5262.15 1382.39 5227.56C1339.34 5157.6 1347.03 5061.51 1353.94 4976.18C1355.48 4954.65 1357.02 4934.66 1357.79 4915.44C1359.33 4875.47 1356.25 4833.96 1352.41 4794.75C1346.26 4722.49 1340.11 4647.92 1363.94 4575.66C1382.39 4521.84 1415.44 4483.41 1465.41 4458.81C1504.62 4439.59 1553.05 4428.83 1622.24 4423.44C1725.25 4422.68 1827.49 4437.28 1879 4539.53C1912.82 4621.78 1912.82 4710.19 1913.59 4795.52C1913.59 4827.81 1913.59 4860.86 1915.9 4893.15C1916.67 4903.14 1917.44 4913.14 1917.44 4923.13C1923.59 5016.92 1930.51 5123.01 1887.46 5209.11C1865.93 5252.93 1828.26 5285.21 1776.76 5305.97C1735.24 5322.88 1682.97 5332.11 1627.62 5332.11V5332.11ZM1623.78 4428.06C1515.38 4436.51 1409.29 4460.34 1370.09 4577.19C1346.26 4648.69 1352.41 4722.49 1358.56 4793.98C1361.63 4833.96 1365.48 4874.7 1363.94 4915.44C1363.17 4934.66 1361.63 4954.65 1360.09 4976.18C1353.18 5060.74 1345.49 5156.06 1387.77 5224.48C1405.45 5252.93 1462.34 5320.58 1609.17 5325.96H1628.39C1798.28 5325.96 1861.32 5250.62 1884.38 5206.03C1926.66 5121.47 1919.74 5015.38 1914.36 4922.36C1913.59 4912.37 1912.82 4902.38 1912.82 4892.38C1911.29 4860.09 1910.52 4827.04 1910.52 4794.75C1909.75 4710.19 1909.75 4621.78 1876.69 4540.29C1853.63 4494.94 1819.04 4464.19 1771.38 4446.51C1722.18 4430.36 1666.83 4428.06 1623.78 4428.06V4428.06Z" fill="black"/>
<path fill-rule="evenodd" clip-rule="evenodd" d="M1642.23 4565.66C1660.68 4674.83 1839.03 4645.61 1813.66 4535.68C1790.59 4437.28 1636.08 4464.96 1642.23 4565.66Z" fill="white"/>
<path d="M1726.79 4637.16C1692.19 4637.16 1648.38 4618.71 1639.15 4566.43C1637.61 4541.83 1645.3 4519.54 1661.44 4502.62C1679.13 4483.41 1706.03 4472.64 1733.71 4472.64C1765.99 4472.64 1804.43 4489.56 1815.19 4536.45C1821.34 4562.59 1816.73 4585.65 1802.13 4604.1C1785.98 4624.09 1757.54 4637.16 1726.79 4637.16ZM1644.53 4565.66C1648.38 4587.19 1658.37 4604.1 1674.51 4616.4C1688.35 4627.16 1707.57 4632.54 1726.79 4632.54C1755.23 4632.54 1782.91 4620.24 1798.28 4601.02C1812.12 4584.11 1815.96 4561.82 1810.58 4537.22C1800.59 4493.4 1764.46 4478.02 1733.71 4478.02C1707.57 4478.02 1682.2 4488.79 1665.29 4506.47C1650.68 4521.84 1642.99 4542.6 1644.53 4565.66V4565.66Z" fill="black"/>
<path fill-rule="evenodd" clip-rule="evenodd" d="M1429.28 4583.34C1453.88 4677.9 1605.32 4654.07 1599.94 4558.74C1593.02 4444.97 1405.45 4466.49 1429.28 4583.34Z" fill="white"/>
<path d="M1510 4646.38C1476.94 4646.38 1438.51 4630.24 1426.21 4584.11C1420.83 4557.21 1426.21 4532.61 1441.58 4514.16C1458.49 4493.4 1486.17 4481.1 1516.15 4481.1C1556.13 4481.1 1598.41 4504.93 1601.48 4558.74C1603.02 4581.04 1596.1 4601.02 1580.73 4617.17C1564.58 4634.85 1537.68 4646.38 1510 4646.38ZM1516.15 4486.48C1487.71 4486.48 1461.57 4498.01 1445.43 4517.23C1430.82 4534.91 1426.21 4557.21 1431.59 4582.57C1442.35 4625.62 1479.25 4641 1510 4641C1536.14 4641 1561.51 4631.01 1577.65 4613.32C1591.49 4598.72 1598.41 4579.5 1596.87 4558.74C1595.33 4525.69 1573.04 4486.48 1516.15 4486.48V4486.48Z" fill="black"/>
<path fill-rule="evenodd" clip-rule="evenodd" d="M1663.75 4696.35C1663.75 4710.19 1666.82 4726.33 1664.52 4741.71C1660.67 4748.63 1653.76 4749.39 1647.61 4751.7C1639.15 4750.16 1632.23 4744.78 1628.39 4737.09C1626.08 4720.18 1629.16 4703.27 1629.92 4686.36L1663.75 4696.35V4696.35Z" fill="white"/>
<path d="M1647.61 4754.77C1637.61 4753.24 1629.92 4747.09 1626.08 4738.63C1624.54 4726.33 1625.31 4714.8 1626.08 4703.27C1626.85 4697.89 1626.85 4692.51 1626.85 4687.12V4684.05L1666.06 4696.35V4697.89C1666.06 4702.5 1666.82 4707.11 1666.82 4712.49C1667.59 4722.49 1668.36 4733.25 1666.82 4743.24V4744.01C1663.75 4750.16 1658.37 4751.7 1652.99 4754.01C1651.45 4753.24 1649.91 4754.01 1647.61 4754.77ZM1630.69 4736.32C1633.77 4743.24 1639.92 4747.86 1646.84 4749.39C1648.37 4748.62 1649.91 4748.62 1650.68 4747.86C1655.29 4746.32 1659.14 4744.78 1661.44 4740.94C1662.98 4731.71 1662.21 4721.72 1661.44 4711.72C1661.44 4707.11 1660.67 4702.5 1660.67 4698.66L1631.46 4689.43C1631.46 4694.04 1630.69 4698.66 1630.69 4702.5C1629.92 4714.8 1629.16 4725.56 1630.69 4736.32V4736.32Z" fill="black"/>
<path fill-rule="evenodd" clip-rule="evenodd" d="M1496.93 4567.97C1496.93 4583.34 1485.4 4595.64 1471.56 4595.64C1457.73 4595.64 1446.19 4583.34 1446.19 4567.97C1446.19 4552.59 1457.73 4540.29 1471.56 4540.29C1485.4 4540.29 1496.93 4552.59 1496.93 4567.97Z" fill="black"/>
<path fill-rule="evenodd" clip-rule="evenodd" d="M1488.47 4574.12C1488.47 4577.96 1485.4 4581.04 1482.32 4581.04C1479.25 4581.04 1476.17 4577.96 1476.17 4574.12C1476.17 4570.28 1479.25 4567.2 1482.32 4567.2C1486.17 4567.2 1488.47 4570.28 1488.47 4574.12Z" fill="white"/>
<path fill-rule="evenodd" clip-rule="evenodd" d="M1711.41 4561.05C1711.41 4576.43 1699.88 4588.73 1686.04 4588.73C1672.21 4588.73 1660.67 4576.43 1660.67 4561.05C1660.67 4545.68 1672.21 4533.38 1686.04 4533.38C1699.88 4533.38 1711.41 4545.68 1711.41 4561.05Z" fill="black"/>
<path fill-rule="evenodd" clip-rule="evenodd" d="M1703.72 4567.2C1703.72 4571.04 1701.42 4574.12 1697.58 4574.12C1694.5 4574.12 1691.42 4571.04 1691.42 4567.2C1691.42 4563.36 1693.73 4560.28 1697.58 4560.28C1700.65 4560.28 1703.72 4563.36 1703.72 4567.2ZM1589.95 4694.81C1578.42 4721.72 1596.1 4776.3 1626.85 4736.33C1624.54 4719.41 1627.62 4702.5 1628.39 4685.59L1589.95 4694.81Z" fill="white"/>
<path d="M1606.09 4753.24C1600.71 4753.24 1595.33 4750.16 1591.49 4744.01C1583.03 4731.71 1581.49 4708.65 1587.64 4694.04L1588.41 4692.51L1630.69 4681.74V4684.82L1629.93 4701.73C1629.16 4713.26 1628.39 4724.03 1629.93 4735.56V4736.33L1629.16 4737.09C1621.47 4747.86 1613.78 4753.24 1606.09 4753.24ZM1592.26 4697.12C1587.64 4710.19 1589.18 4730.94 1596.1 4740.94C1599.18 4745.55 1602.25 4747.86 1606.09 4747.86C1611.48 4747.86 1617.63 4743.24 1623.78 4735.56C1622.24 4724.03 1623.01 4712.49 1624.54 4701.73L1625.31 4688.66L1592.26 4697.12Z" fill="black"/>
<path fill-rule="evenodd" clip-rule="evenodd" d="M1593.79 4642.54C1573.04 4644.08 1556.12 4669.44 1566.89 4688.66C1581.49 4714.8 1613.01 4686.36 1633 4688.66C1656.06 4689.43 1674.51 4713.26 1692.96 4693.28C1713.72 4670.98 1683.74 4649.46 1661.44 4639.46L1593.79 4642.54V4642.54Z" fill="#F6D2A2"/>
<path d="M1676.82 4704.04C1669.9 4704.04 1662.98 4700.96 1656.06 4697.89C1649.14 4694.81 1641.46 4691.74 1633 4691.74H1630.69C1624.54 4691.74 1617.63 4694.04 1609.94 4697.12C1601.48 4700.19 1593.03 4702.5 1585.34 4702.5C1576.11 4702.5 1569.19 4698.66 1564.58 4690.2C1559.2 4680.98 1559.97 4670.21 1565.35 4660.22C1571.5 4648.69 1582.26 4641.77 1593.79 4640.23L1662.21 4637.16H1662.98C1679.89 4644.07 1699.11 4657.14 1702.96 4672.52C1704.49 4680.21 1702.19 4687.89 1696.04 4694.81C1689.89 4701.73 1683.74 4704.04 1676.82 4704.04V4704.04ZM1633.77 4687.12C1642.22 4687.12 1650.68 4690.97 1658.37 4694.04C1665.29 4697.12 1671.44 4699.42 1677.59 4699.42C1682.97 4699.42 1687.58 4697.12 1692.19 4692.51C1697.57 4687.13 1699.11 4680.98 1698.34 4674.83C1695.27 4661.76 1676.82 4649.46 1662.21 4643.31L1595.33 4646.38C1585.34 4647.15 1576.11 4654.07 1570.73 4663.29C1566.12 4671.75 1566.12 4680.98 1569.96 4688.66C1573.81 4695.58 1578.42 4698.66 1586.11 4698.66C1593.03 4698.66 1600.71 4695.58 1608.4 4693.27C1616.86 4690.2 1623.78 4687.89 1631.46 4687.89C1631.46 4686.36 1632.23 4686.36 1633.77 4687.12V4687.12Z" fill="#231F20"/>
<path fill-rule="evenodd" clip-rule="evenodd" d="M1591.49 4641.77C1589.95 4605.64 1659.14 4601.03 1666.83 4631.01C1675.28 4661.76 1594.56 4668.68 1591.49 4641.77" fill="black"/>
<path d="M4072 2139.92C4468.46 2139.92 4790 1965.92 4790 1751C4790 1536.08 4468.46 1362.08 4072 1362.08C3675.54 1362.08 3354 1536.08 3354 1751C3354 1965.92 3675.54 2139.92 4072 2139.92Z" fill="#878EB7"/>
<path d="M3654.9 1968.86L3674.41 1865.35C3766.61 1865.35 3823.81 1872.35 3876.76 1821.25C3935.34 1765.78 3950.6 1667.12 3908.83 1617.69C3887.06 1591.79 3852.11 1579.04 3804.49 1579.04H3645.93L3572.57 1968.86H3654.9V1968.86ZM3717.07 1640.55C3802.27 1640.55 3860.19 1631.1 3843.62 1719.83V1719.77C3825.91 1813.35 3763.26 1803.66 3686.31 1803.66L3717.07 1640.55ZM3997.75 1864.93L4039.87 1641.69C4106.52 1641.69 4134.11 1638.94 4146.25 1652.4C4158.82 1666.28 4152.3 1681.48 4117.77 1864.99H4200.82C4236.72 1675.19 4252.64 1635.05 4219.37 1603.57C4187.78 1573.54 4122.26 1578.86 4051.54 1578.86L4071.04 1475.35H3989.19L3915.84 1864.93H3997.75ZM4298.59 1968.86L4318.09 1865.35C4415.02 1865.35 4468.64 1871.15 4520.51 1821.25C4579.09 1765.78 4594.35 1667.12 4552.58 1617.69C4530.8 1591.79 4495.8 1579.04 4448.23 1579.04H4289.61L4216.02 1968.86H4298.59V1968.86ZM4360.52 1640.55C4446.2 1640.55 4503.64 1631.1 4487.06 1719.83V1719.77C4469.11 1814.79 4404.73 1803.66 4329.76 1803.66L4360.52 1640.55Z" fill="#23282C"/>
<path d="M3834.58 1751H3696.25L3686.31 1803.71C3699.48 1803.71 3712.22 1804.01 3724.43 1804.01C3774.21 1803.95 3814.48 1799.23 3834.58 1751ZM4790 1751H4565.51C4556.23 1777.09 4541.03 1801.8 4520.51 1821.24C4478.45 1861.75 4435.25 1865.58 4368.65 1865.58C4353.16 1865.58 4336.4 1865.34 4318.15 1865.34L4298.65 1968.85H4216.08L4257.12 1751H4222.96C4217.04 1781.51 4209.44 1818.79 4200.7 1864.98H4117.65C4126.87 1816.1 4134.11 1779.12 4139.49 1751H4019.17L3997.69 1864.92H3915.84L3937.26 1751H3921.82C3912.54 1777.09 3897.35 1801.8 3876.82 1821.24C3835.24 1861.39 3791.02 1865.64 3729.27 1865.64C3712.4 1865.64 3694.27 1865.34 3674.47 1865.34L3654.96 1968.85H3572.51L3613.56 1751H3354C3354 1965.92 3675.54 2139.92 4072 2139.92C4468.46 2139.92 4790 1965.92 4790 1751Z" fill="#767C9F"/>
<path d="M3921.82 1751H3834.58C3814.42 1799.23 3774.21 1803.95 3724.37 1803.95C3712.16 1803.95 3699.42 1803.65 3686.25 1803.65L3696.25 1751H3613.56L3572.57 1968.85H3654.96L3674.47 1865.34C3694.21 1865.34 3712.4 1865.64 3729.27 1865.64C3791.02 1865.64 3835.24 1861.33 3876.82 1821.24C3897.29 1801.8 3912.48 1777.09 3921.82 1751ZM4019.23 1751H3937.26L3915.84 1864.92H3997.75L4019.23 1751ZM4223.02 1751H4139.61C4134.23 1779.18 4126.99 1816.1 4117.77 1864.98H4200.82C4209.5 1818.79 4217.04 1781.46 4223.02 1751Z" fill="#1E2326"/>
<path d="M4478.15 1751H4339.75L4329.82 1803.71C4344.06 1803.71 4357.88 1804.13 4371.11 1804.13C4418.73 1804.07 4458.22 1798.87 4478.15 1751Z" fill="#767C9F"/>
<path d="M4565.51 1751H4478.15C4458.22 1798.93 4418.73 1804.07 4371.11 1804.07C4357.88 1804.07 4344.06 1803.65 4329.82 1803.65L4339.69 1751H4257.12L4216.02 1968.85H4298.59L4318.09 1865.34C4336.4 1865.34 4353.16 1865.58 4368.59 1865.58C4435.19 1865.58 4478.45 1861.75 4520.45 1821.24C4541.03 1801.8 4556.23 1777.09 4565.51 1751Z" fill="#1E2326"/>
<path d="M2142.78 3818.2V4373.86H3254.11V3262.54H2142.78V3818.2ZM3038.33 3773.75C3064.95 3779.92 3089.14 3793.84 3107.86 3813.75C3118.16 3824.48 3127.12 3836.42 3134.53 3849.32C3134.53 3850.74 3086.52 3883.19 3057.27 3901.33C3056.2 3902.04 3051.94 3897.41 3047.22 3890.39C3041.88 3881.18 3034.3 3873.47 3025.17 3867.98C3016.05 3862.49 3005.68 3859.4 2995.04 3859.01C2961.34 3856.7 2939.65 3874.39 2939.83 3903.46C2939.55 3910.7 2941.2 3917.88 2944.63 3924.26C2952.01 3939.65 2965.79 3948.8 3008.99 3967.47C3088.57 4001.7 3122.62 4024.28 3143.78 4056.38C3167.43 4091.94 3172.67 4149.38 3156.67 4191.87C3138.89 4238.1 3095.32 4269.49 3033.71 4279.89C3005.57 4283.11 2977.14 4282.81 2949.07 4279C2906.24 4272.05 2866.73 4251.66 2836.25 4220.77C2826.03 4209.48 2806.11 4180.05 2807.36 4177.91C2810.6 4175.5 2814.02 4173.34 2817.58 4171.42L2858.48 4147.95L2890.39 4129.46L2897.06 4139.33C2908.32 4155.43 2922.64 4169.14 2939.2 4179.69C2974.77 4198.36 3023.31 4195.78 3047.31 4174.18C3055.37 4166.26 3060.4 4155.77 3061.52 4144.53C3062.64 4133.29 3059.79 4122.01 3053.45 4112.66C3044.56 4100.3 3026.78 4089.9 2977.08 4068.2C2919.73 4043.49 2895.02 4028.2 2872.43 4003.84C2858.34 3987.76 2847.93 3968.79 2841.94 3948.27C2837.47 3924.82 2836.81 3900.8 2839.98 3877.14C2851.81 3821.76 2893.33 3783.08 2953.96 3771.61C2982.04 3768.14 3010.49 3768.92 3038.33 3773.92V3773.75ZM2777.48 3820.33V3865.85H2633.19V4276.87H2530.86V3865.76H2386.21V3821.31C2385.82 3806.01 2386.23 3790.69 2387.45 3775.44C2387.98 3774.72 2476.36 3774.37 2583.05 3774.55H2776.95L2777.48 3820.33Z" fill="#007ACC"/>
<g clip-path="url(#clip1)">
<path d="M8179.9 2470.42L8021.7 2617.75L7874.84 2321.38L7950.71 2150.99C7969.89 2116.98 8001.27 2116.58 8020.45 2150.99L8179.9 2470.42Z" fill="#FFA000"/>
<path d="M8021.7 2617.7L7429.83 3168.17L7874.83 2321.41L8021.7 2617.7Z" fill="#F57F17"/>
<path d="M8353.39 2245.14C8381.74 2218.11 8410.94 2227.28 8418.32 2265.57L8572.17 3160.72L8061.84 3467.1C8043.91 3477.12 7996.45 3481.01 7996.45 3481.01C7996.45 3481.01 7953.28 3475.74 7936.73 3466.64L7429.9 3168.17L8353.39 2245.14Z" fill="#FFCA28"/>
<path d="M7874.84 2321.38L7429.9 3168.15L7628.18 1930.43C7635.63 1892.07 7657.38 1888.18 7676.96 1922.12L7874.84 2321.38Z" fill="#FFA000"/>
</g>
<g clip-path="url(#clip2)">
<path d="M8483.05 3896.63C8632.25 4010.36 8829.68 4078.79 9048.86 4078.79C9205.2 4078.79 9387.1 4037.37 9512.27 3959.29C9532.82 3946.43 9514.94 3926.83 9494.01 3934.87C9353.59 3984.98 9201.06 4009.4 9062.15 4009.4C8856.33 4009.4 8657.32 3961.52 8496.02 3882.49C8481.91 3875.44 8471.28 3887.67 8483.05 3896.63Z" fill="#FF9800"/>
<path d="M9296.96 3517.54C9296.96 3512.12 9293.48 3509.49 9287.43 3509.49H9252.11C9251.58 3509.45 9251.01 3509.45 9250.49 3509.45C9245.53 3509.45 9240.95 3510.65 9237.19 3512.72C9234.52 3514.63 9231.85 3518.85 9229.56 3525.27L9163.73 3740.49L9103.63 3525.27C9102.15 3519.13 9099.43 3514.63 9096.43 3512.72C9093.38 3510.49 9088.42 3509.49 9081.17 3509.49H9050.86C9050.29 3509.45 9049.76 3509.45 9049.19 3509.45C9044.14 3509.45 9039.42 3510.65 9035.51 3512.72C9032.51 3514.63 9030.22 3518.85 9028.31 3525.27L8968.97 3737.94L8905 3525.27C8902.76 3519.13 8900.47 3514.63 8897.37 3512.72C8894.75 3510.49 8889.79 3509.49 8882.6 3509.49H8845.27C8839.22 3509.49 8836.17 3512.4 8836.17 3517.54L8836.22 3517.78C8836.79 3522.32 8837.98 3526.7 8839.6 3530.44L8928.97 3778.81C8931.26 3784.9 8933.93 3789.4 8936.98 3791.31C8940.03 3793.58 8944.61 3794.54 8951.47 3794.54L8984.17 3794.5C8990.99 3794.5 8996.33 3793.54 8999.43 3791.27C9002.43 3789 9004.67 3784.82 9006.58 3778.41L9065.21 3571.55L9124.22 3778.73C9125.7 3785.18 9128.36 3789.36 9131.37 3791.59C9134.47 3793.86 9139.42 3794.82 9146.62 3794.82H9179.32C9179.8 3794.86 9180.23 3794.86 9180.7 3794.86C9185.56 3794.86 9190.09 3793.66 9193.81 3791.59C9196.86 3789.68 9199.53 3785.5 9201.82 3779.08L9293.48 3530.76L9293.34 3531.08C9294.53 3528.45 9295.48 3525.78 9296.15 3522.72C9296.53 3520.77 9296.96 3519.17 9296.96 3517.54ZM9511.51 3718.38C9511.51 3718.7 9511.51 3718.94 9511.51 3719.25C9511.51 3731.76 9503.69 3742.72 9491.73 3748.89C9478.81 3755.98 9460.12 3759.53 9436.2 3759.53C9420.94 3759.53 9406.12 3758.25 9390.91 3755.66C9376.04 3753.07 9361.98 3749.25 9349.06 3744.43C9345.25 3743.15 9341.82 3741.84 9339.53 3741.2C9337.24 3740.57 9334.95 3740.25 9332.66 3740.25C9326.99 3740.25 9323.94 3743.47 9323.94 3750.21V3766.58C9323.99 3769.84 9324.8 3772.95 9326.23 3775.58C9327.75 3778.49 9331.9 3781.71 9338 3784.54C9347.92 3789.36 9362.74 3793.54 9381.76 3797.41C9400.78 3801.23 9420.51 3803.14 9440.3 3803.14C9459.74 3803.14 9477.57 3800.87 9494.68 3796.41C9511.03 3792.23 9525.09 3786.45 9536.92 3778.41C9548.69 3770.68 9557.84 3761.08 9564.71 3750.13C9571.14 3739.21 9574.57 3726.66 9574.57 3712.84C9574.57 3696.15 9568.85 3681.05 9557.08 3667.87C9545.31 3654.72 9525.48 3644.41 9498.11 3637L9444.06 3622.58C9423.9 3617.12 9409.84 3610.99 9402.26 3604.85C9394.63 3598.76 9390.82 3591.03 9390.82 3582.03C9390.82 3568.88 9396.92 3559.56 9408.69 3553.47C9420.47 3547.33 9437.63 3544.51 9459.31 3544.51C9460.17 3544.51 9461.08 3544.51 9461.98 3544.51C9487.44 3544.51 9511.65 3549.09 9532.34 3557.01L9532.15 3556.93C9536.53 3559.01 9541.4 3560.36 9546.78 3560.88C9552.5 3560.88 9555.55 3557.33 9555.55 3550.56V3535.62C9555.6 3535.3 9555.6 3534.95 9555.6 3534.59C9555.6 3531 9554.31 3527.7 9552.17 3525.03L9552.12 3524.95C9549.12 3521.68 9545.3 3518.93 9540.73 3516.98C9536.96 3514.99 9531.62 3513.08 9524.76 3511.17C9517.94 3509.29 9510.7 3507.66 9503.07 3506.07C9495.06 3504.79 9487.1 3503.48 9478.38 3502.52C9469.99 3501.57 9461.22 3501.25 9452.88 3501.25C9436.15 3501.25 9420.18 3502.88 9404.93 3506.7C9389.67 3510.53 9376.8 3515.99 9365.36 3523.39C9353.92 3530.44 9344.82 3539.45 9337.96 3549.72C9331.14 3560.04 9327.66 3571.91 9327.66 3585.38C9327.75 3603.02 9334.9 3619.27 9346.73 3631.98C9359.26 3646.44 9379.81 3657.35 9407.6 3664.68L9462.75 3679.18C9481.38 3684.32 9494.35 3689.82 9501.21 3695.87C9507.6 3701.45 9511.51 3709.1 9511.51 3717.5C9511.51 3717.82 9511.51 3718.06 9511.51 3718.34C9511.51 3718.34 9511.51 3718.34 9511.51 3718.38Z" fill="#212121"/>
<path d="M9546.88 4035.73C9613.85 3988.21 9631.34 3888.95 9617.66 3874.49C9603.98 3860.35 9486.39 3848.16 9414.89 3890.54C9403.83 3897.31 9405.74 3906.32 9417.89 3905.04C9458.6 3900.86 9548.4 3891.9 9564.42 3909.18C9580.39 3926.23 9546.54 3997.89 9531.29 4029.68C9526.71 4039.28 9536.63 4043.14 9546.88 4035.73Z" fill="#FF9800"/>
<path d="M8693.45 3628.44C8679.39 3626.85 8666.09 3625.85 8653.13 3625.85C8613.95 3625.85 8583.15 3634.22 8559.94 3650.91C8536.73 3667.56 8525.33 3689.78 8525.33 3717.07C8525.33 3742.8 8534.82 3763.35 8553.46 3778.77C8572.09 3794.19 8597.6 3801.87 8629.53 3801.87C8674.44 3801.87 8711.76 3787.1 8741.41 3757.58L8742.17 3759.05C8745.79 3765.43 8749.75 3771.6 8753.23 3776.5L8753.51 3776.9C8757.47 3782.16 8761.95 3787.14 8766.91 3791.6C8770.67 3794.5 8774.49 3796.14 8778.3 3796.14H8778.35C8782.02 3796.02 8785.45 3794.94 8788.22 3793.23L8812.19 3779.77C8817.15 3776.54 8819.44 3773.31 8819.44 3770.13C8819.44 3767.86 8818.67 3765.31 8816.77 3762.76C8811.43 3754.39 8807.62 3746.66 8804.57 3739.57C8801.9 3732.52 8800.37 3722.92 8800.37 3711.01L8799.61 3711.05V3606.93C8799.61 3571.6 8788.98 3545.23 8768.05 3527.94C8746.75 3510.57 8713.66 3501.89 8668.38 3501.89C8667.67 3501.89 8666.9 3501.89 8666.19 3501.89C8645.88 3501.89 8626.15 3504.12 8608.99 3507.98C8590.35 3511.85 8574.38 3516.67 8561.08 3522.44L8560.89 3522.48C8556.84 3523.96 8553.27 3526.27 8550.41 3529.13C8548.5 3531.41 8547.74 3535.27 8547.74 3540.41V3556.14C8547.74 3562.87 8550.41 3566.1 8555.75 3566.1H8555.79C8557.94 3566.02 8559.99 3565.7 8561.8 3565.18L8562.56 3565.02C8567.14 3563.79 8571.57 3562.4 8575.15 3560.96C8588.44 3556.46 8602.17 3552.92 8616.23 3550.01C8630.3 3547.1 8644.02 3545.86 8657.37 3545.86C8686.64 3545.86 8707.18 3550.64 8719.34 3560.64C8731.16 3570.6 8737.21 3587.61 8737.21 3612.03V3635.49C8722.05 3632.62 8707.52 3630.03 8693.45 3628.44ZM8738.02 3671.5V3684.96C8738.02 3695.88 8736.45 3705.2 8734.21 3712.89C8731.92 3720.61 8727.35 3727.39 8721.24 3733.48C8711 3743.12 8698.79 3750.17 8685.11 3754.03C8671.38 3757.9 8658.47 3759.81 8645.93 3759.81C8628.39 3759.81 8615.09 3755.95 8605.99 3747.9C8596.45 3740.21 8591.92 3728.94 8591.92 3713.84C8591.92 3697.79 8597.98 3685.6 8610.51 3676.96C8623.1 3668.27 8641.74 3664.09 8667.24 3664.09C8679.87 3664.09 8692.26 3664.81 8702.99 3666L8704.61 3666.16C8716.72 3667.52 8728.58 3669.43 8738.02 3671.5Z" fill="#212121"/>
</g>
<path d="M5670.31 0L5737.01 851.4L6036.5 946L6335.88 851.459L6402.69 0H5670.31Z" fill="#2196F3"/>
<path d="M6260.08 278.425L6251.66 385.382L6226.24 706.017L6036.5 765.319L6036.34 765.378L5846.71 706.017L5833.47 538.338H5926.38L5933.29 625.311L6036.39 656.766L6036.45 656.707L6139.71 625.252L6153.78 480.337L5829.03 481.342L5819.82 382.248L6161.58 377.696L6168.48 271.626L5810.67 272.749L5804.65 174.069H6268.35L6260.08 278.425Z" fill="#FAFAFA"/>
<g clip-path="url(#clip3)">
<path d="M1401.55 6635.55L1305.65 5560H2359.35L2263.35 6635.4L1831.85 6755L1401.55 6635.55Z" fill="#E44D26"/>
<path d="M1832.5 6663.59L2181.14 6566.89L2263.2 5647.94H1832.5V6663.59Z" fill="#F16529"/>
<path d="M1832.5 6046.86H1657.98L1645.88 5911.78H1832.5V5779.83H1501.73L1504.87 5815.23L1537.29 6178.71H1832.5V6046.86ZM1832.5 6389.43L1831.9 6389.58L1685.02 6349.9L1675.61 6244.69H1543.21L1561.68 6451.82L1831.9 6526.86L1832.5 6526.66V6389.43Z" fill="#EBEBEB"/>
<path d="M1832.05 6046.86V6178.76H1994.52L1979.19 6349.85L1832.05 6389.53V6526.76L2102.47 6451.82L2104.46 6429.51L2135.48 6082.27L2138.67 6046.81H2103.12H1832.05V6046.86ZM1832.05 5779.83V5911.78H2150.67L2153.31 5882.1L2159.33 5815.23L2162.47 5779.83H1832.05V5779.83Z" fill="white"/>
<path d="M1832.5 6754.81L1831.85 6755H1832.5V6754.81Z" fill="#DEDEDE"/>
<path d="M1832.5 5911.78H1645.88L1657.93 6046.86H1832H1832.5V5911.78ZM1832.5 5560H1305.65L1401.55 6635.55L1831.85 6755L1832.5 6754.8V6526.66L1831.9 6526.85L1561.68 6451.82L1543.21 6244.69H1675.61L1685.02 6349.9L1831.9 6389.58L1832.05 6389.53L1832.5 6389.43V6178.76H1537.29L1504.87 5815.28L1501.73 5779.83H1832.05H1832.5V5560Z" fill="#C64321"/>
<path d="M1675.61 6244.69H1543.21L1561.68 6451.82L1831.9 6526.86L1832.5 6526.66L1832.05 6526.76V6389.53L1831.9 6389.58L1685.02 6349.9L1675.61 6244.69ZM1832.05 5779.83H1501.73L1504.87 5815.23L1537.29 6178.71H1832.5H1832.05V6046.86H1657.98L1645.88 5911.78H1832.5H1832.05V5779.83Z" fill="#CDCDCD"/>
<path d="M1832.5 6389.43L1832.05 6389.53V6526.76L1832.5 6526.66V6389.43ZM1832.5 6046.86H1832.05V6178.76H1832.5V6046.86ZM1832.5 5779.83H1832.05V5911.78H1832.5V5779.83Z" fill="#DEDEDE"/>
</g>
<path d="M3528 2481H5315V4268H3528V2481Z" fill="#F7DF1E"/>
<path d="M3997.87 3974.35L4134.62 3891.59C4161 3938.36 4185 3977.94 4242.57 3977.94C4297.75 3977.94 4332.55 3956.36 4332.55 3872.4V3301.41H4500.48V3874.77C4500.48 4048.7 4398.52 4127.87 4249.77 4127.87C4115.43 4127.87 4037.45 4058.3 3997.86 3974.33L3997.87 3974.35ZM4591.69 3956.35L4728.42 3877.18C4764.42 3935.97 4811.21 3979.15 4893.97 3979.15C4963.55 3979.15 5007.92 3944.36 5007.92 3896.37C5007.92 3838.8 4962.34 3818.4 4885.57 3784.83L4843.59 3766.82C4722.43 3715.25 4642.07 3650.47 4642.07 3513.73C4642.07 3387.77 4738.03 3291.8 4887.98 3291.8C4994.74 3291.8 5071.51 3328.99 5126.68 3426.16L4995.92 3510.13C4967.13 3458.55 4935.95 3438.16 4887.97 3438.16C4838.79 3438.16 4807.6 3469.35 4807.6 3510.13C4807.6 3560.51 4838.79 3580.91 4910.75 3612.1L4952.73 3630.09C5095.49 3691.27 5175.85 3753.64 5175.85 3893.98C5175.85 4045.13 5057.1 4127.89 4897.56 4127.89C4741.62 4127.89 4640.86 4053.52 4591.68 3956.36" fill="black"/>
<path d="M8062.92 4578H7102.08C7049 4578 7006 4621.05 7006 4674.08V5634.92C7006 5687.95 7049 5731 7102.08 5731H8062.92C8115.95 5731 8159 5687.95 8159 5634.92V4674.08C8159 4621.05 8115.95 4578 8062.92 4578ZM7861.72 5387.65V5387.74C7852.16 5410.9 7836.88 5431.27 7817.38 5447.03C7797.2 5463.36 7771.64 5476.81 7740.22 5486.42C7708.8 5496.17 7671.47 5501.07 7628.14 5501.07H7319.14V4828.49H7645.96C7706.4 4828.49 7754.83 4842.09 7791 4869.81C7827.51 4897.67 7845.72 4939.18 7845.72 4995.19C7845.72 5029.06 7837.41 5058.13 7820.79 5082.15C7804.26 5106.03 7780.43 5124.71 7749.68 5137.69V5139.9C7790.71 5148.54 7822.47 5168.05 7843.32 5198.31C7864.26 5228.58 7874.93 5266.77 7874.93 5312.99C7874.93 5338.84 7869.93 5363.43 7860.52 5386.4L7861.72 5387.65Z" fill="#543B79"/>
<path d="M7728.4 5221.99C7708.71 5203.98 7681.03 5195.18 7645.24 5195.18H7437.65V5405.03H7645.87C7681.37 5405.03 7709.28 5395.81 7728.98 5377.17C7748.68 5358.67 7758.77 5332.3 7758.77 5298.38C7758.43 5265.23 7748.68 5239.57 7728.98 5221.99H7728.4V5221.99ZM7699.34 5086.37H7699.58C7718.6 5070.23 7727.92 5047.12 7727.92 5017C7727.92 4983.18 7719.47 4959.16 7702.41 4945.42C7685.5 4931.72 7661.1 4924.61 7629 4924.61H7436.84V5110.2H7629C7657.06 5110.2 7680.94 5102.03 7699.34 5086.37Z" fill="#543B79"/>
<path d="M7582.5 4828.48H7319.14V5501.07H7582.5V5405.03H7437.66V5195.19H7582.5V5110.2H7436.89V4924.61H7582.5V4828.48Z" fill="#DEDEDE"/>
<path d="M7582.5 4578H7102.08C7049 4578 7006 4621.05 7006 4674.08V5634.92C7006 5687.95 7049 5731 7102.08 5731H7582.5V5501.07H7319.14V4828.49H7582.5V4578Z" fill="#493369"/>
<path d="M7582.5 5195.2H7437.66V5405.04H7582.5V5195.2Z" fill="#493369"/>
<path d="M7582.5 4924.61H7436.89V5110.2H7582.5V4924.61Z" fill="#493369"/>
<g clip-path="url(#clip4)">
<path d="M9502.6 2684.41C9535.61 2679.69 9573.33 2670.26 9592.18 2660.84C9611.05 2651.4 9625.19 2637.26 9625.19 2627.83L9615.76 2608.97C9606.33 2594.83 9596.9 2575.97 9573.33 2524.1C9563.9 2500.53 9542.56 2438.77 9535.61 2410.95C9528.4 2369.37 9527.74 2325.1 9535.61 2283.64C9542.45 2259.4 9551.86 2235.96 9568.61 2217.63C9587.41 2192.76 9609.47 2168.22 9639.34 2156.34C9732.3 2119.34 9842.08 2038.47 9898.65 1948.89C9917.51 1915.88 9926.51 1901.74 9933.39 1882.87C9950.4 1836.21 9965.41 1786.65 9964.66 1736.72V1732H8922.67V1741.43C8921.9 1864.98 8994.93 1976.34 9082.98 2057.33C9130.13 2099.76 9186.71 2132.76 9252.71 2156.34C9276.29 2165.77 9285.72 2170.49 9304.58 2189.34C9328.15 2217.63 9347.01 2250.64 9356.44 2288.36C9362.15 2342.85 9357.88 2400.44 9342.29 2453.38L9332.87 2481.66C9328.15 2500.53 9314.01 2528.82 9290.43 2575.97C9266.86 2623.12 9266.86 2627.83 9266.86 2632.54C9276.29 2660.84 9332.87 2679.69 9417.74 2689.12C9436.6 2689.12 9464.88 2689.12 9502.6 2684.41V2684.41ZM9106.55 2524.1C9139.56 2519.39 9167.85 2509.96 9177.27 2495.81V2491.1L9172.56 2476.95C9139.56 2415.66 9120.7 2363.79 9120.7 2311.93C9120.7 2283.64 9125.41 2269.5 9134.84 2245.92C9148.99 2222.35 9153.7 2214.74 9177.27 2205.31C9186.71 2200.49 9197.96 2198.67 9202.68 2195.77C9215 2192.13 9229.14 2184.63 9229.14 2184.63C9229.14 2184.63 9220.68 2182.81 9211.14 2178.09C9182.85 2168.66 9172.56 2161.06 9148.99 2146.91C9073.55 2104.48 9026.4 2062.04 8979.25 2000.75C8965.11 1977.17 8957.79 1966.76 8950.96 1957.26L8946.25 1948.88C8941.53 1944.17 8752.93 1944.17 8748.22 1948.88C8745.03 2014.89 8776.66 2073.05 8818.94 2123.34C8868.34 2182.08 8908.53 2198.77 8946.25 2208.2C8979.26 2217.63 8983.97 2222.35 8998.11 2241.21C9007.55 2264.78 9012.26 2278.93 9012.26 2307.21C9016.98 2349.65 9002.83 2392.08 8974.54 2453.38L8955.68 2491.1C8955.68 2495.81 8965.11 2505.24 8974.54 2509.96C8998.11 2524.1 9064.12 2533.53 9106.56 2524.1H9106.55ZM9875.08 2524.1C9912.8 2519.39 9936.38 2509.96 9941.09 2495.81C9941.09 2491.1 9941.09 2486.38 9926.94 2458.09C9897.28 2399.54 9876.81 2329.94 9893.94 2264.78C9903.73 2238.41 9916.32 2210.92 9945.8 2206.34C9992.95 2192.2 10030.7 2170.49 10077.8 2123.34C10106.1 2095.05 10132.4 2047.32 10139.8 2019.61C10145.7 1997.39 10153.2 1970.83 10148.5 1948.88C10143.8 1944.17 9950.52 1944.17 9945.8 1948.88L9936.38 1958.31C9931.65 1972.46 9912.8 2000.75 9898.65 2014.89C9879.79 2038.47 9823.22 2095.05 9804.36 2109.19C9769.58 2144.81 9702.85 2168.82 9667.62 2184.63C9672.34 2189.34 9695.91 2203.49 9714.78 2208.2C9752.49 2222.35 9752.49 2222.35 9766.64 2245.92C9776.07 2269.5 9780.78 2283.64 9780.78 2311.93C9783.39 2377.37 9750.02 2437.98 9724.21 2491.1C9757.72 2528.83 9828.1 2527.88 9875.08 2524.1H9875.08Z" fill="#7AB852"/>
</g>
<path d="M6384.33 2352.39C6384.33 2352.39 6334.09 2381.62 6420.14 2391.5C6524.37 2403.4 6577.65 2401.69 6692.5 2379.98C6692.5 2379.98 6722.77 2398.9 6764.93 2415.3C6507.39 2525.64 6182.06 2408.91 6384.33 2352.39ZM6352.83 2208.37C6352.83 2208.37 6296.48 2250.11 6382.58 2259.01C6493.94 2270.5 6581.85 2271.45 6734.09 2242.14C6734.09 2242.14 6755.09 2263.5 6788.18 2275.14C6476.86 2366.21 6130.09 2282.31 6352.83 2208.37V2208.37Z" fill="#0074BD"/>
<path d="M6618.12 1964.06C6681.62 2037.15 6601.48 2102.86 6601.48 2102.86C6601.48 2102.86 6762.6 2019.7 6688.61 1915.51C6619.48 1818.39 6566.51 1770.16 6853.37 1603.79C6853.39 1603.79 6403.06 1716.22 6618.12 1964.06Z" fill="#EA2D2E"/>
<path d="M6958.74 2458.91C6958.74 2458.91 6995.94 2489.58 6917.77 2513.29C6769.15 2558.31 6299.11 2571.9 6168.55 2515.08C6121.65 2494.66 6209.65 2466.33 6237.32 2460.38C6266.19 2454.12 6282.68 2455.27 6282.68 2455.27C6230.48 2418.51 5945.3 2527.46 6137.83 2558.71C6662.88 2643.81 7094.91 2520.38 6958.74 2458.91V2458.91ZM6408.51 2059.14C6408.51 2059.14 6169.43 2115.94 6323.86 2136.59C6389.08 2145.31 6519.01 2143.31 6640.13 2133.15C6739.09 2124.84 6838.4 2107.08 6838.4 2107.08C6838.4 2107.08 6803.54 2122.05 6778.28 2139.27C6535.46 2203.13 6066.47 2173.38 6201.5 2108.09C6315.66 2052.86 6408.51 2059.14 6408.51 2059.14V2059.14ZM6837.4 2298.85C7084.22 2170.63 6970.09 2047.4 6890.44 2063.99C6870.96 2068.06 6862.21 2071.58 6862.21 2071.58C6862.21 2071.58 6869.48 2060.2 6883.29 2055.32C7040.88 1999.95 7162.05 2218.71 6832.48 2305.35C6832.48 2305.35 6836.26 2301.92 6837.4 2298.85Z" fill="#0074BD"/>
<path d="M6688.63 1335.08C6688.63 1335.08 6825.3 1471.82 6558.97 1682.05C6345.4 1850.73 6510.26 1946.88 6558.88 2056.79C6434.21 1944.3 6342.76 1845.27 6404.1 1753.12C6494.19 1617.86 6743.76 1552.25 6688.63 1335.08V1335.08Z" fill="#EA2D2E"/>
<path d="M6432.78 2646.43C6669.64 2661.57 7033.48 2638 7042.09 2525.92C7042.09 2525.92 7025.54 2568.4 6846.31 2602.11C6644.11 2640.17 6394.7 2635.75 6246.81 2611.34C6246.81 2611.34 6277.09 2636.42 6432.78 2646.43V2646.43Z" fill="#0074BD"/>
<path d="M7031.15 2847.46H7023.93V2843.42H7043.36V2847.46H7036.17V2867.6H7031.14L7031.15 2847.46V2847.46ZM7069.93 2848.47H7069.84L7062.68 2867.6H7059.38L7052.26 2848.47H7052.19V2867.6H7047.41V2843.42H7054.41L7061 2860.54L7067.61 2843.42H7074.55V2867.6H7069.93V2848.47V2848.47ZM6393.96 3074.71C6371.63 3094.07 6348.01 3104.97 6326.79 3104.97C6296.6 3104.97 6280.21 3086.82 6280.21 3057.77C6280.21 3026.34 6297.75 3003.32 6367.99 3003.32H6393.95V3074.71H6393.96ZM6455.62 3144.28V2928.94C6455.62 2873.89 6424.22 2837.58 6348.59 2837.58C6304.45 2837.58 6265.74 2848.5 6234.28 2862.39L6243.33 2900.52C6268.12 2891.42 6300.16 2882.98 6331.61 2882.98C6375.21 2882.98 6393.95 2900.52 6393.95 2936.84V2964.05H6372.16C6266.29 2964.05 6218.52 3005.12 6218.52 3066.89C6218.52 3120.11 6250 3150.35 6309.28 3150.35C6347.37 3150.35 6375.84 3134.63 6402.41 3111.6L6407.24 3144.29H6455.62V3144.28V3144.28ZM6661.4 3144.28H6584.5L6491.94 2843.1H6559.11L6616.56 3028.17L6629.34 3083.78C6658.34 3003.35 6678.9 2921.69 6689.18 2843.11H6754.51C6737.03 2942.25 6705.51 3051.12 6661.4 3144.28ZM6956.44 3074.71C6934.03 3094.07 6910.4 3104.97 6889.26 3104.97C6859.03 3104.97 6842.67 3086.82 6842.67 3057.77C6842.67 3026.34 6860.24 3003.32 6930.41 3003.32H6956.43V3074.71H6956.44ZM7018.14 3144.28V2928.94C7018.14 2873.89 6986.64 2837.58 6911.07 2837.58C6866.88 2837.58 6828.19 2848.5 6796.73 2862.39L6805.8 2900.52C6830.58 2891.42 6862.67 2882.98 6894.12 2882.98C6937.66 2882.98 6956.44 2900.52 6956.44 2936.84V2964.05H6934.66C6828.76 2964.05 6781 3005.12 6781 3066.89C6781 3120.11 6812.45 3150.35 6871.71 3150.35C6909.82 3150.35 6938.24 3134.63 6964.89 3111.6L6969.75 3144.29H7018.14V3144.28V3144.28ZM6150.91 3195.46C6133.36 3221.14 6104.94 3241.47 6073.86 3252.93L6043.43 3217.06C6067.1 3204.91 6087.37 3185.32 6096.81 3167.06C6104.94 3150.79 6108.32 3129.88 6108.32 3079.85V2735.94H6173.86V3075.12C6173.86 3142.04 6168.53 3169.1 6150.91 3195.46V3195.46Z" fill="#EA2D2E"/>
<g clip-path="url(#clip5)">
<path fill-rule="evenodd" clip-rule="evenodd" d="M4696.7 4873.28C4694.45 4873.73 4692.2 4878.69 4692.2 4881.39C4691.75 4899.42 4691.3 4947.18 4691.3 4979.62C4691.3 4980.53 4692.65 4982.33 4694 4982.33C4700.76 4982.78 4716.98 4983.23 4730.95 4983.23C4750.32 4983.23 4761.59 4980.53 4767.9 4977.83C4784.12 4969.71 4791.78 4952.14 4791.78 4932.76C4791.78 4889.06 4761.14 4872.38 4715.63 4872.38C4712.47 4871.93 4703.47 4871.93 4696.7 4873.28V4873.28ZM4812.96 5074.7C4812.96 5030.09 4780.06 5005.31 4720.59 5005.31C4717.88 5005.31 4698.96 5004.86 4694.45 5005.75C4693.1 5006.21 4691.3 5007.11 4691.3 5008.46C4691.3 5040.45 4690.85 5091.38 4692.2 5111.2C4693.1 5119.76 4699.41 5131.93 4707.07 5135.53C4715.18 5140.04 4733.65 5140.94 4746.27 5140.94C4781.87 5140.94 4812.96 5121.11 4812.96 5074.7V5074.7ZM4604.79 4848.5C4609.29 4848.5 4622.8 4849.85 4657.5 4849.85C4690.4 4849.85 4716.53 4848.95 4748.52 4848.95C4787.72 4848.95 4841.79 4862.92 4841.79 4921.5C4841.79 4950.33 4821.52 4973.32 4794.93 4984.58C4793.59 4985.03 4793.59 4985.93 4794.93 4986.38C4832.78 4995.85 4866.13 5019.28 4866.13 5063.43C4866.13 5106.69 4839.09 5134.18 4799.89 5151.3C4776.01 5161.66 4746.27 5165.27 4716.08 5165.27C4693.1 5165.27 4631.37 5162.57 4597.13 5163.47C4593.52 5162.11 4600.28 5145.89 4603.43 5143.19C4611.54 5142.74 4617.85 5142.29 4626.41 5139.58C4638.58 5136.43 4639.93 5132.83 4641.73 5114.35C4642.63 5098.58 4642.63 5042.7 4642.63 5003.05C4642.63 4948.53 4643.09 4911.58 4642.63 4893.56C4642.18 4879.6 4637.23 4875.09 4627.32 4872.38C4619.65 4871.03 4607.04 4869.23 4596.67 4867.88C4594.42 4865.62 4602.08 4850.3 4604.79 4848.5ZM4344.79 5128.77C4355.61 5137.33 4376.78 5140.93 4395.71 5140.93C4420.04 5140.93 4444.37 5136.43 4467.8 5115.25C4491.69 5093.63 4508.36 5060.28 4508.36 5007.11C4508.36 4956.19 4488.98 4914.73 4449.33 4890.41C4426.8 4876.43 4397.96 4870.58 4364.62 4870.58C4354.7 4870.58 4345.24 4871.03 4339.39 4873.73C4338.03 4874.64 4334.88 4878.69 4334.88 4880.94C4333.98 4889.95 4333.98 4959.34 4333.98 4999.9C4333.98 5041.8 4333.98 5100.38 4334.88 5107.14C4334.88 5113.9 4338.03 5124.27 4344.79 5128.77H4344.79ZM4242.5 4848.5C4251.07 4848.5 4283.96 4849.85 4299.73 4849.85C4328.12 4849.85 4348.39 4848.5 4402.01 4848.5C4447.07 4848.5 4484.92 4860.67 4511.96 4883.65C4544.85 4912.03 4561.98 4951.24 4561.98 4999C4561.98 5067.04 4530.89 5106.24 4499.79 5128.77C4468.71 5151.75 4428.15 5165.27 4370.48 5165.27C4339.84 5165.27 4287.12 5164.37 4243.4 5163.91H4242.96C4240.7 5159.86 4246.56 5144.09 4250.16 5143.64C4261.88 5142.29 4265.04 5141.83 4270.89 5139.59C4280.35 5135.98 4282.16 5131.02 4283.51 5114.35C4284.86 5083.26 4284.41 5045.86 4284.41 5003.5C4284.41 4973.32 4284.86 4914.29 4283.96 4895.36C4282.61 4879.59 4275.85 4875.54 4262.33 4872.83C4255.57 4871.48 4246.56 4869.68 4233.95 4868.33C4232.14 4865.17 4240.25 4851.2 4242.5 4848.5V4848.5Z" fill="#8E714E"/>
<path fill-rule="evenodd" clip-rule="evenodd" d="M3697.29 5146.34C3686.02 5144.99 3677.91 5143.19 3668 5138.68C3666.65 5137.78 3664.39 5133.28 3664.39 5131.47C3663.49 5115.7 3663.49 5070.64 3663.49 5040.46C3663.49 5016.12 3659.44 4994.94 3649.07 4980.08C3636.91 4962.95 3619.34 4953.04 3596.8 4953.04C3576.98 4953.04 3550.39 4966.56 3528.31 4985.48C3527.86 4985.93 3524.26 4989.09 3524.71 4984.13C3524.71 4979.17 3525.61 4969.26 3526.06 4962.5C3526.52 4956.19 3522.91 4953.04 3522.91 4953.04C3508.49 4960.25 3467.94 4969.71 3453.06 4971.06C3442.25 4973.32 3439.55 4983.68 3450.82 4987.28H3451.27C3463.42 4990.89 3471.54 4994.94 3477.84 4999C3482.35 5002.61 3481.9 5007.56 3481.9 5011.62C3482.35 5045.41 3482.35 5097.23 3481 5125.62C3480.55 5136.88 3477.4 5140.94 3469.28 5142.74L3470.19 5142.29C3463.88 5143.64 3458.92 5144.99 3451.26 5145.89C3448.56 5148.6 3448.56 5163.02 3451.26 5166.17C3456.22 5166.17 3482.35 5164.82 3503.99 5164.82C3533.72 5164.82 3549.04 5166.17 3556.7 5166.17C3559.85 5162.57 3560.76 5149.05 3558.96 5145.89C3550.39 5145.44 3544.08 5144.54 3538.23 5142.74C3530.12 5140.93 3527.86 5136.88 3527.41 5127.42C3526.52 5103.53 3526.52 5053.07 3526.52 5018.83C3526.52 5009.36 3529.22 5004.86 3531.92 5002.15C3542.28 4993.14 3558.96 4986.83 3573.82 4986.83C3588.24 4986.83 3597.7 4991.34 3604.91 4997.2C3614.83 5005.31 3617.98 5017.02 3619.33 5025.58C3621.58 5044.96 3620.68 5083.26 3620.68 5116.6C3620.68 5134.63 3619.33 5139.13 3612.58 5141.38C3609.42 5142.74 3601.31 5144.54 3591.85 5145.44C3588.69 5148.6 3589.6 5162.57 3591.85 5165.72C3604.91 5165.72 3620.24 5164.37 3642.77 5164.37C3670.7 5164.37 3688.73 5165.72 3695.94 5165.72C3698.18 5163.02 3699.09 5149.95 3697.29 5146.34V5146.34ZM3822.1 4974.22C3798.22 4974.22 3783.35 4992.69 3783.35 5021.53C3783.35 5050.82 3796.42 5084.61 3833.37 5084.61C3839.67 5084.61 3851.39 5081.91 3856.79 5075.6C3865.36 5067.49 3871.22 5051.27 3871.22 5034.14C3871.22 4996.75 3852.74 4974.22 3822.1 4974.22V4974.22ZM3818.95 5173.38C3809.94 5173.38 3803.62 5176.08 3799.57 5178.34C3780.65 5190.5 3772.09 5202.21 3772.09 5216.19C3772.09 5229.25 3777.04 5239.61 3787.86 5248.63C3800.92 5259.89 3818.95 5265.3 3841.93 5265.3C3887.89 5265.3 3908.17 5240.52 3908.17 5216.19C3908.17 5199.06 3899.6 5187.8 3882.03 5181.49C3869.42 5176.08 3846.44 5173.38 3818.95 5173.38V5173.38ZM3822.1 5290.54C3794.62 5290.54 3774.79 5284.68 3757.67 5271.61C3740.99 5258.99 3733.79 5240.07 3733.79 5227C3733.79 5223.4 3734.69 5213.48 3742.8 5204.47C3747.75 5199.06 3758.57 5188.7 3784.25 5171.13C3785.15 5170.68 3785.6 5170.23 3785.6 5169.32C3785.6 5168.42 3784.7 5167.52 3783.8 5167.07C3762.62 5158.96 3756.31 5145.89 3754.51 5138.68V5137.78C3754.06 5135.08 3753.16 5132.38 3757.22 5129.67C3760.37 5127.42 3764.88 5124.71 3769.83 5121.57C3777.49 5117.05 3785.6 5112.1 3790.56 5108.04C3791.46 5107.14 3791.46 5106.24 3791.46 5105.34C3791.46 5104.44 3790.56 5103.53 3789.65 5103.09C3758.12 5092.72 3742.35 5069.29 3742.35 5034.14C3742.35 5011.17 3752.71 4990.44 3771.18 4977.37C3783.8 4967.46 3815.34 4955.29 3836.07 4955.29H3837.42C3858.6 4955.74 3870.31 4960.25 3886.98 4966.11C3896 4969.26 3904.56 4970.61 3916.28 4970.61C3933.85 4970.61 3941.51 4965.2 3947.81 4958.9C3948.27 4959.8 3949.17 4962.05 3949.62 4967.91C3950.07 4973.77 3948.27 4982.33 3943.76 4988.64C3940.16 4993.59 3932.05 4997.2 3923.94 4997.2H3921.68C3913.57 4996.3 3909.96 4995.39 3909.96 4995.39L3908.17 4996.3C3907.72 4997.2 3908.17 4998.1 3908.61 4999.45L3909.07 5000.35C3909.97 5004.41 3911.77 5016.57 3911.77 5019.73C3911.77 5056.68 3896.9 5072.89 3881.13 5085.06C3865.81 5096.33 3848.24 5103.53 3828.41 5105.34C3827.96 5105.34 3826.16 5105.34 3822.1 5105.79C3819.85 5105.79 3816.7 5106.24 3816.24 5106.24H3815.79C3812.19 5107.14 3803.18 5111.65 3803.18 5119.3C3803.18 5126.06 3807.23 5134.18 3826.61 5135.53C3830.66 5135.98 3834.71 5135.98 3839.22 5136.43C3864.91 5138.23 3896.9 5140.49 3911.77 5145.44C3932.5 5153.1 3945.56 5171.58 3945.56 5193.66C3945.56 5227 3921.69 5258.09 3882.03 5277.46C3862.66 5286.03 3843.28 5290.54 3822.1 5290.54V5290.54ZM4078.94 4976.47C4069.48 4976.47 4060.91 4978.72 4054.61 4983.23C4037.04 4994.04 4028.02 5015.67 4028.02 5047.21C4028.02 5106.24 4057.76 5147.7 4100.12 5147.7C4112.74 5147.7 4122.65 5144.09 4131.21 5136.88C4144.27 5126.06 4151.04 5104.44 4151.04 5074.25C4151.04 5015.67 4121.74 4976.47 4078.94 4976.47L4078.94 4976.47ZM4087.05 5169.32C4010.45 5169.32 3982.97 5113 3982.97 5060.28C3982.97 5023.33 3997.83 4994.94 4027.57 4974.67C4048.75 4961.6 4073.99 4954.39 4096.52 4954.39C4155.09 4954.39 4196.09 4996.3 4196.09 5056.68C4196.09 5097.68 4179.87 5130.12 4148.78 5149.95C4133.91 5159.86 4108.23 5169.32 4087.05 5169.32H4087.05V5169.32ZM3284.09 4976.47C3274.63 4976.47 3266.07 4978.72 3259.76 4983.23C3242.19 4994.04 3233.18 5015.67 3233.18 5047.21C3233.18 5106.24 3262.91 5147.7 3305.27 5147.7C3317.89 5147.7 3327.8 5144.09 3336.36 5136.88C3349.43 5126.06 3356.19 5104.44 3356.19 5074.25C3356.19 5015.67 3327.35 4976.47 3284.09 4976.47ZM3292.2 5169.32C3215.6 5169.32 3188.12 5113 3188.12 5060.28C3188.12 5023.33 3202.98 4994.94 3232.72 4974.67C3253.9 4961.6 3279.14 4954.39 3301.67 4954.39C3360.25 4954.39 3401.25 4996.3 3401.25 5056.68C3401.25 5097.68 3385.03 5130.12 3353.93 5149.95C3339.51 5159.86 3313.83 5169.32 3292.2 5169.32ZM2777.17 5164.82C2776.27 5163.47 2775.37 5159.41 2775.82 5154.46C2775.82 5150.85 2776.72 5148.6 2777.17 5147.7C2786.64 5146.34 2791.59 5144.99 2797 5143.64C2806.01 5141.38 2809.62 5136.43 2810.06 5125.17C2811.42 5098.13 2811.42 5046.76 2810.97 5011.17V5010.26C2810.97 5006.21 2810.97 5001.25 2806.01 4997.64C2798.8 4993.14 2790.24 4989.09 2778.98 4985.93C2774.92 4984.58 2772.22 4982.33 2772.67 4979.63C2772.67 4976.92 2775.37 4973.77 2781.23 4972.86C2796.1 4971.51 2834.85 4962.05 2850.17 4955.29C2851.07 4956.19 2852.42 4958.9 2852.42 4962.5L2851.97 4967.45C2851.52 4972.42 2851.07 4978.27 2851.07 4984.13C2851.07 4985.93 2852.88 4987.28 2854.67 4987.28C2855.58 4987.28 2856.48 4986.83 2857.38 4986.38C2886.22 4963.85 2912.35 4955.74 2925.87 4955.74C2947.95 4955.74 2965.07 4966.11 2978.14 4987.73C2979.04 4989.09 2979.94 4989.54 2981.3 4989.54C2982.19 4989.54 2983.54 4989.09 2984 4988.19C3010.58 4967.91 3037.17 4955.74 3054.74 4955.74C3096.64 4955.74 3121.43 4986.83 3121.43 5039.55C3121.43 5054.42 3121.43 5073.8 3120.98 5091.38C3120.98 5107.14 3120.53 5121.56 3120.53 5131.93C3120.53 5134.17 3123.68 5141.38 3128.63 5142.74C3134.94 5145.89 3143.51 5147.24 3154.77 5149.05H3155.22C3156.12 5152.2 3154.32 5163.91 3152.52 5166.17C3149.82 5166.17 3145.76 5166.17 3141.26 5165.72C3129.85 5165.13 3118.43 5164.82 3107.01 5164.82C3079.07 5164.82 3064.65 5165.27 3050.68 5166.17C3049.79 5162.57 3049.33 5151.75 3050.68 5149.05C3058.8 5147.7 3062.85 5146.34 3067.81 5144.99C3076.82 5142.29 3079.07 5138.23 3079.53 5126.52C3079.53 5117.96 3081.32 5044.96 3078.62 5027.39C3075.92 5009.36 3062.4 4988.19 3032.66 4988.19C3021.39 4988.19 3003.82 4992.69 2986.7 5005.75C2985.8 5006.66 2984.89 5008.91 2984.89 5010.26V5010.72C2986.7 5020.17 2986.7 5030.99 2986.7 5047.66V5076.95C2986.7 5097.23 2986.25 5116.16 2986.7 5130.57C2986.7 5140.49 2992.56 5142.74 2997.52 5144.54C3000.22 5144.99 3002.02 5145.44 3004.27 5145.89C3008.33 5146.79 3012.38 5147.7 3018.69 5149.05C3019.6 5150.85 3019.6 5156.71 3018.24 5161.66C3017.79 5164.37 3016.89 5165.72 3016.44 5166.17C3001.12 5165.72 2985.35 5165.27 2962.37 5165.27C2955.61 5165.27 2943.89 5165.72 2933.98 5165.72C2925.87 5165.72 2918.21 5166.17 2913.71 5166.17C2913.25 5165.27 2912.35 5162.12 2912.35 5157.16C2912.35 5153.1 2913.25 5149.95 2914.16 5149.05C2916.41 5148.6 2918.21 5148.15 2920.47 5148.15C2925.87 5147.24 2930.38 5146.34 2934.88 5145.44C2942.55 5143.19 2945.25 5139.13 2945.69 5129.22C2947.05 5106.69 2948.4 5042.26 2945.25 5026.03C2939.84 4999.9 2924.97 4986.83 2901.09 4986.83C2887.12 4986.83 2869.54 4993.59 2855.13 5004.41C2852.87 5006.21 2851.07 5010.71 2851.07 5014.77V5041.36C2851.07 5073.8 2851.07 5114.35 2851.52 5131.93C2851.97 5137.33 2853.77 5143.64 2864.14 5145.89C2866.39 5146.34 2870 5147.24 2874.5 5147.7L2882.61 5149.05C2883.52 5151.75 2883.06 5162.57 2881.26 5166.17C2876.75 5166.17 2871.35 5165.72 2865.04 5165.72C2855.58 5165.27 2843.41 5164.82 2829.89 5164.82C2814.12 5164.82 2802.86 5165.27 2793.84 5165.72C2787.54 5164.82 2782.58 5164.82 2777.17 5164.82V5164.82Z" fill="#442D22"/>
<path fill-rule="evenodd" clip-rule="evenodd" d="M2540.16 5272.96L2521.69 5266.65C2521.69 5266.65 2523.94 5172.48 2490.14 5165.72C2467.62 5139.58 2493.76 4057.26 2574.86 5162.11C2574.86 5162.11 2546.92 5176.08 2541.96 5199.96C2536.55 5223.4 2540.16 5272.96 2540.16 5272.96V5272.96Z" fill="white"/>
<path fill-rule="evenodd" clip-rule="evenodd" d="M2540.16 5272.96L2521.69 5266.65C2521.69 5266.65 2523.94 5172.48 2490.14 5165.72C2467.62 5139.58 2493.76 4057.26 2574.86 5162.11C2574.86 5162.11 2546.92 5176.08 2541.96 5199.96C2536.55 5223.4 2540.16 5272.96 2540.16 5272.96V5272.96Z" fill="#A6A385"/>
<path fill-rule="evenodd" clip-rule="evenodd" d="M2550.07 5181.94C2550.07 5181.94 2711.84 5075.6 2673.99 4854.35C2637.49 4693.5 2551.43 4640.78 2541.96 4620.5C2531.6 4606.08 2521.69 4580.85 2521.69 4580.85L2528.45 5028.28C2528.45 5028.74 2514.48 5165.27 2550.08 5181.95" fill="white"/>
<path fill-rule="evenodd" clip-rule="evenodd" d="M2550.07 5181.94C2550.07 5181.94 2711.84 5075.6 2673.99 4854.35C2637.49 4693.5 2551.43 4640.78 2541.96 4620.5C2531.6 4606.08 2521.69 4580.85 2521.69 4580.85L2528.45 5028.28C2528.45 5028.74 2514.48 5165.27 2550.08 5181.95" fill="#499D4A"/>
<path fill-rule="evenodd" clip-rule="evenodd" d="M2512.23 5187.8C2512.23 5187.8 2360.37 5084.16 2369.39 4901.67C2377.95 4719.18 2485.19 4629.51 2505.91 4613.29C2519.43 4598.87 2519.88 4593.46 2520.79 4579.05C2530.25 4599.32 2528.45 4882.3 2529.8 4915.64C2533.85 5044.06 2522.59 5163.47 2512.23 5187.8Z" fill="white"/>
<path fill-rule="evenodd" clip-rule="evenodd" d="M2512.23 5187.8C2512.23 5187.8 2360.37 5084.16 2369.39 4901.67C2377.95 4719.18 2485.19 4629.51 2505.91 4613.29C2519.43 4598.87 2519.88 4593.46 2520.79 4579.05C2530.25 4599.32 2528.45 4882.3 2529.8 4915.64C2533.85 5044.06 2522.59 5163.47 2512.23 5187.8Z" fill="#58AA50"/>
</g>
<g clip-path="url(#clip6)">
<path d="M4394.99 5784.13C4363.95 5829.37 4337.75 6063.08 4285.94 6063.08C4233.97 6063.08 4293.54 5914.76 4310.08 5863.61C4115.22 6080.93 3982.41 5962.56 4083.1 5685.94C4161.44 5470.51 4358.85 5263.06 4482.54 5449.03C4499.36 5473.6 4492.74 5521.67 4462.09 5521.67C4426.83 5521.67 4424.88 5440.51 4368.4 5440.51C4258 5440.51 4090.53 5777.24 4136.16 5880.21C4170.44 5958.6 4313.39 5797.15 4339.05 5742.95C4361.35 5681.38 4369.87 5606.3 4414.73 5621.43C4457.21 5635.97 4409.47 5741.87 4394.99 5784.13ZM4824.75 5863.28C4750.81 5962.67 4604.17 6035.8 4639 5878.58C4585.24 5974.17 4445.06 6011.27 4445.06 5910.1C4456.72 5835.67 4488.46 5762.86 4521.06 5694.94C4535.28 5664.4 4560.28 5660.66 4577.27 5672.1C4610.52 5694.83 4549.27 5745.12 4522.04 5842.88C4518.35 5856.12 4512.92 5879.93 4519.65 5891.98C4527.63 5906.08 4559.15 5893.66 4573.14 5883.52C4655.28 5824.33 4675.78 5702.86 4699.65 5674.82C4710.23 5662.28 4728.73 5663.37 4737.85 5675.2C4753.9 5696.08 4741.48 5718.27 4713.65 5781.36C4699.49 5813.53 4662.27 5905.32 4697.27 5905.32C4736.38 5905.32 4797.36 5845.65 4821.34 5808.43L4824.75 5863.28Z" fill="#CF4547"/>
<path d="M4835.33 5843.11C4789.27 5956.49 4895.93 5876.42 4975.13 5796.29C4988.97 5781.86 5014.3 5796.78 4998.95 5830.63C4993.09 5843.54 4882.15 5969.89 4808.42 5969.89C4708.22 5969.89 4788.68 5801.28 4823.07 5714.81C4914.81 5488.58 4932.55 5392.83 4983.11 5432.6C5010.13 5453.81 4982.62 5463.79 4835.33 5843.11Z" fill="#CF4547"/>
<path d="M5318.26 5769.98C5357.6 5743.12 5358.68 5803.77 5331.56 5825.26C5265.32 5883.95 5249.31 5902.13 5212.48 5930.01C5150.04 5977.21 5056.89 5989.53 5056.89 5927.79C5058.14 5872.13 5173.47 5779.9 5173.47 5744.1C5173.47 5715.45 5066.38 5719.25 4952.29 6019.25C4926.96 6086.31 4900.21 6196.6 4847.81 6158.95C4818.03 6137.14 4872.71 6048.39 4933.36 5910.7C4989.83 5783.05 5014.41 5640.91 5059.27 5686.65C5070.12 5697.71 5062.75 5732.38 5058.62 5742.52C5172.49 5618.13 5271.34 5668.69 5234.29 5752.02C5213.18 5799.49 5173.85 5841.15 5137.12 5884.44C5118.24 5906.79 5134.25 5916.67 5158.44 5902.83C5190.61 5884.39 5285.5 5799.27 5318.26 5769.98Z" fill="#CF4547"/>
</g>
<path d="M4575 597.988H4506.9V736.628H4575V597.988Z" fill="#C53735"/>
<path d="M5188 459.354H3962V875.326H4302.57V944.646H4575V875.326H5188V459.354ZM4302.57 806.006H4234.43V597.994H4166.33V805.955H4030.09V528.674H4302.52V806.006H4302.57ZM4643.09 806.006H4506.85V875.326H4370.67V528.674H4643.09V806.006ZM5119.91 806.006H5051.81V597.994H4983.67V805.955H4915.57V597.994H4847.48V805.955H4711.24V528.674H5119.91V806.006Z" fill="#C53735"/>
<path d="M9263.4 6292.66C9230.95 6271.28 9192.36 6261.2 9153.61 6263.97C9134.58 6264.08 9115.6 6265.75 9096.84 6268.96C9091.76 6239.57 9080.59 6211.57 9064.05 6186.75C9047.5 6161.93 9025.95 6140.85 9000.78 6124.86L8981.44 6113.63L8968.96 6131.72C8953.24 6156.28 8941.65 6183.25 8934.65 6211.56C8928 6236.63 8926.56 6262.79 8930.42 6288.44C8934.28 6314.08 8943.37 6338.66 8957.11 6360.65C8926.28 6374.75 8893.04 6382.8 8859.17 6384.36H7973.37C7962.29 6384.36 7951.66 6388.76 7943.82 6396.6C7935.98 6404.44 7931.58 6415.07 7931.58 6426.15C7930.36 6503.78 7943.47 6580.97 7970.25 6653.84C7994.49 6725.6 8041.88 6787.26 8104.99 6829.13C8196.45 6875.4 8298.29 6897.31 8400.68 6892.76C8455.71 6892.76 8510.62 6887.75 8564.74 6877.79C8640.17 6864.13 8712.73 6837.76 8779.33 6799.81C8834.12 6768.02 8883.42 6727.58 8925.3 6680.04C8987.37 6607.19 9035.77 6523.71 9068.15 6433.64H9080.62C9108.21 6434.77 9135.75 6430.33 9161.58 6420.58C9187.41 6410.82 9211.01 6395.96 9230.96 6376.87C9248.33 6360.43 9261.95 6340.43 9270.88 6318.23L9276.5 6302.02L9263.4 6292.66Z" fill="#6563FF"/>
<path d="M8055.72 6358.79H8174.24C8175.64 6358.8 8177.02 6358.53 8178.31 6358C8179.61 6357.47 8180.78 6356.69 8181.77 6355.71C8182.76 6354.72 8183.54 6353.55 8184.06 6352.25C8184.59 6350.96 8184.86 6349.58 8184.85 6348.18V6242.14C8184.86 6240.74 8184.59 6239.35 8184.06 6238.06C8183.54 6236.77 8182.76 6235.6 8181.77 6234.61C8180.78 6233.62 8179.61 6232.84 8178.31 6232.31C8177.02 6231.78 8175.64 6231.52 8174.24 6231.53H8055.72C8054.32 6231.52 8052.94 6231.78 8051.65 6232.31C8050.36 6232.84 8049.18 6233.62 8048.19 6234.61C8047.21 6235.6 8046.43 6236.77 8045.9 6238.06C8045.37 6239.35 8045.1 6240.74 8045.12 6242.14V6348.18C8045.19 6350.97 8046.34 6353.62 8048.31 6355.59C8050.28 6357.56 8052.93 6358.71 8055.72 6358.79ZM8219.16 6358.79H8337.68C8339.07 6358.8 8340.46 6358.53 8341.75 6358C8343.04 6357.47 8344.22 6356.69 8345.2 6355.71C8346.19 6354.72 8346.97 6353.55 8347.5 6352.25C8348.03 6350.96 8348.3 6349.58 8348.28 6348.18V6242.14C8348.3 6240.74 8348.03 6239.35 8347.5 6238.06C8346.97 6236.77 8346.19 6235.6 8345.2 6234.61C8344.22 6233.62 8343.04 6232.84 8341.75 6232.31C8340.46 6231.78 8339.07 6231.52 8337.68 6231.53H8219.16C8217.76 6231.52 8216.38 6231.78 8215.08 6232.31C8213.79 6232.84 8212.62 6233.62 8211.63 6234.61C8210.64 6235.6 8209.86 6236.77 8209.33 6238.06C8208.81 6239.35 8208.54 6240.74 8208.55 6242.14V6348.18C8208.63 6350.97 8209.77 6353.62 8211.75 6355.59C8213.72 6357.56 8216.37 6358.71 8219.16 6358.79V6358.79ZM8385.71 6358.79H8504.23C8505.63 6358.8 8507.01 6358.53 8508.31 6358C8509.6 6357.47 8510.77 6356.69 8511.76 6355.71C8512.75 6354.72 8513.53 6353.55 8514.06 6352.25C8514.58 6350.96 8514.85 6349.58 8514.84 6348.18V6242.14C8514.85 6240.74 8514.58 6239.35 8514.06 6238.06C8513.53 6236.77 8512.75 6235.6 8511.76 6234.61C8510.77 6233.62 8509.6 6232.84 8508.31 6232.31C8507.01 6231.78 8505.63 6231.52 8504.23 6231.53H8385.71C8384.31 6231.52 8382.93 6231.78 8381.64 6232.31C8380.34 6232.84 8379.17 6233.62 8378.18 6234.61C8377.2 6235.6 8376.42 6236.77 8375.89 6238.06C8375.36 6239.35 8375.09 6240.74 8375.1 6242.14V6348.18C8375.04 6349.59 8375.27 6351 8375.78 6352.31C8376.29 6353.63 8377.07 6354.82 8378.07 6355.82C8379.07 6356.82 8380.26 6357.6 8381.58 6358.11C8382.89 6358.62 8384.3 6358.85 8385.71 6358.79H8385.71ZM8549.77 6358.79H8668.29C8669.69 6358.8 8671.07 6358.53 8672.37 6358C8673.66 6357.47 8674.83 6356.69 8675.82 6355.71C8676.81 6354.72 8677.59 6353.55 8678.12 6352.25C8678.64 6350.96 8678.91 6349.58 8678.9 6348.18V6242.14C8678.91 6240.74 8678.64 6239.35 8678.12 6238.06C8677.59 6236.77 8676.81 6235.6 8675.82 6234.61C8674.83 6233.62 8673.66 6232.84 8672.37 6232.31C8671.07 6231.78 8669.69 6231.52 8668.29 6231.53H8549.77C8548.38 6231.52 8546.99 6231.78 8545.7 6232.31C8544.41 6232.84 8543.23 6233.62 8542.25 6234.61C8541.26 6235.6 8540.48 6236.77 8539.95 6238.06C8539.42 6239.35 8539.16 6240.74 8539.17 6242.14V6348.18C8539.16 6349.58 8539.42 6350.96 8539.95 6352.25C8540.48 6353.55 8541.26 6354.72 8542.25 6355.71C8543.23 6356.69 8544.41 6357.47 8545.7 6358C8546.99 6358.53 8548.38 6358.8 8549.77 6358.79ZM8219.16 6207.2H8337.68C8340.47 6207.12 8343.12 6205.98 8345.09 6204.01C8347.06 6202.04 8348.2 6199.39 8348.28 6196.6V6090.55C8348.3 6089.15 8348.03 6087.77 8347.5 6086.48C8346.97 6085.19 8346.19 6084.01 8345.2 6083.03C8344.22 6082.04 8343.04 6081.26 8341.75 6080.73C8340.46 6080.2 8339.07 6079.93 8337.68 6079.95H8219.16C8217.76 6079.93 8216.38 6080.2 8215.08 6080.73C8213.79 6081.26 8212.62 6082.04 8211.63 6083.03C8210.64 6084.01 8209.86 6085.19 8209.33 6086.48C8208.81 6087.77 8208.54 6089.15 8208.55 6090.55V6196.6C8208.74 6199.35 8209.92 6201.94 8211.87 6203.89C8213.81 6205.84 8216.41 6207.02 8219.16 6207.2V6207.2ZM8385.71 6207.2H8504.23C8507.02 6207.12 8509.67 6205.98 8511.64 6204.01C8513.61 6202.03 8514.76 6199.38 8514.84 6196.6V6090.55C8514.85 6089.15 8514.58 6087.77 8514.06 6086.48C8513.53 6085.19 8512.75 6084.01 8511.76 6083.03C8510.77 6082.04 8509.6 6081.26 8508.31 6080.73C8507.01 6080.2 8505.63 6079.93 8504.23 6079.95H8385.71C8384.31 6079.93 8382.93 6080.2 8381.64 6080.73C8380.34 6081.26 8379.17 6082.04 8378.18 6083.03C8377.2 6084.01 8376.42 6085.19 8375.89 6086.48C8375.36 6087.77 8375.09 6089.15 8375.1 6090.55V6196.6C8375.09 6197.99 8375.36 6199.38 8375.89 6200.67C8376.42 6201.96 8377.2 6203.14 8378.18 6204.12C8379.17 6205.11 8380.34 6205.89 8381.64 6206.42C8382.93 6206.95 8384.31 6207.21 8385.71 6207.2H8385.71ZM8549.77 6207.2H8668.29C8671.08 6207.12 8673.73 6205.98 8675.7 6204.01C8677.67 6202.03 8678.82 6199.38 8678.9 6196.6V6090.55C8678.82 6087.76 8677.67 6085.11 8675.7 6083.14C8673.73 6081.17 8671.08 6080.03 8668.29 6079.95H8549.77C8548.38 6079.93 8546.99 6080.2 8545.7 6080.73C8544.41 6081.26 8543.23 6082.04 8542.25 6083.03C8541.26 6084.01 8540.48 6085.19 8539.95 6086.48C8539.42 6087.77 8539.16 6089.15 8539.17 6090.55V6196.6C8539.25 6199.38 8540.39 6202.03 8542.36 6204.01C8544.34 6205.98 8546.99 6207.12 8549.77 6207.2H8549.77ZM8549.77 6054.99H8668.29C8669.69 6055.01 8671.07 6054.74 8672.37 6054.21C8673.66 6053.68 8674.83 6052.9 8675.82 6051.92C8676.81 6050.93 8677.59 6049.75 8678.12 6048.46C8678.64 6047.17 8678.91 6045.79 8678.9 6044.39V5938.34C8678.82 5935.56 8677.67 5932.91 8675.7 5930.94C8673.73 5928.96 8671.08 5927.82 8668.29 5927.74H8549.77C8548.38 5927.73 8546.99 5927.99 8545.7 5928.52C8544.41 5929.05 8543.23 5929.83 8542.25 5930.82C8541.26 5931.8 8540.48 5932.98 8539.95 5934.27C8539.42 5935.56 8539.16 5936.95 8539.17 5938.34V6044.39C8539.25 6047.18 8540.39 6049.83 8542.36 6051.8C8544.34 6053.77 8546.99 6054.91 8549.77 6054.99V6054.99ZM8715.08 6358.79H8833.6C8835 6358.8 8836.38 6358.53 8837.67 6358C8838.97 6357.48 8840.14 6356.69 8841.13 6355.71C8842.11 6354.72 8842.9 6353.55 8843.42 6352.25C8843.95 6350.96 8844.22 6349.58 8844.21 6348.18V6242.14C8844.22 6240.74 8843.95 6239.35 8843.42 6238.06C8842.9 6236.77 8842.11 6235.6 8841.13 6234.61C8840.14 6233.62 8838.97 6232.84 8837.67 6232.31C8836.38 6231.78 8835 6231.52 8833.6 6231.53H8715.08C8713.68 6231.52 8712.3 6231.78 8711.01 6232.31C8709.72 6232.84 8708.54 6233.62 8707.55 6234.61C8706.57 6235.6 8705.79 6236.77 8705.26 6238.06C8704.73 6239.35 8704.46 6240.74 8704.48 6242.14V6348.18C8704.55 6350.97 8705.7 6353.62 8707.67 6355.59C8709.64 6357.56 8712.29 6358.71 8715.08 6358.79Z" fill="#D8D8FF"/>
<g clip-path="url(#clip7)">
<path d="M6412.39 3679.27C6406.17 3694.58 6397.56 3709.41 6387.51 3722.81C6298.53 3630.47 6151.66 3628.08 6059.8 3717.06C5967.95 3806.05 5965.08 3952.92 6054.06 4044.78C6056.93 4048.12 6060.28 4050.99 6063.63 4053.87L6072.24 4061.52C6169.84 4143.81 6316.23 4131.37 6398.52 4033.77C6430.09 3996.46 6449.23 3949.57 6452.58 3900.77C6459.28 3842.89 6441.57 3768.25 6412.39 3679.27ZM6097.12 4056.26C6090.42 4064.87 6077.98 4065.83 6069.37 4059.13C6060.76 4052.43 6059.8 4039.99 6066.5 4031.38C6073.2 4022.77 6085.64 4021.81 6094.25 4028.51C6102.38 4035.21 6103.82 4047.65 6097.12 4056.26ZM6410.96 3986.89C6354.03 4062.95 6231.55 4037.12 6153.57 4040.95C6153.57 4040.95 6139.7 4041.9 6125.82 4043.82C6125.82 4043.82 6131.09 4041.43 6137.78 4039.03C6192.8 4019.9 6218.64 4016.07 6252.12 3998.85C6314.8 3966.79 6377.47 3896.47 6389.91 3823.75C6365.99 3893.6 6293.27 3953.88 6227.25 3978.28C6181.8 3995.02 6099.99 4011.29 6099.99 4011.29L6096.64 4009.37C6041.15 3982.1 6039.23 3861.54 6140.65 3822.79C6185.15 3805.57 6227.25 3815.14 6275.57 3803.66C6326.76 3791.7 6386.08 3753.42 6410 3703.19C6436.79 3784.04 6469.32 3909.39 6410.96 3986.89Z" fill="#6DB33F"/>
<path d="M6584.14 3975.41C6577.92 3971.58 6574.1 3964.88 6574.57 3957.7C6574.57 3946.22 6583.66 3936.65 6595.15 3936.65C6595.15 3936.65 6595.15 3936.65 6595.62 3936.65C6599.45 3936.65 6603.28 3937.61 6606.63 3939.53C6625.76 3952.92 6648.25 3960.1 6671.21 3961.05C6693.22 3961.05 6706.14 3951.49 6706.14 3936.65V3935.7C6706.14 3918 6682.22 3912.26 6655.9 3904.12C6622.89 3894.55 6585.58 3881.16 6585.58 3838.1V3837.15C6585.58 3794.57 6620.98 3768.73 6665.47 3768.73C6690.35 3769.21 6714.27 3775.43 6736.28 3786.91C6743.93 3790.74 6748.72 3797.92 6748.72 3806.53C6748.72 3818.01 6739.15 3827.58 6727.67 3827.58H6727.19C6723.84 3827.58 6720.49 3826.62 6717.14 3825.18C6700.87 3816.1 6683.17 3810.83 6664.52 3809.88C6644.42 3809.88 6632.94 3819.44 6632.94 3831.88V3832.84C6632.94 3849.58 6657.34 3856.28 6683.65 3864.89C6716.66 3874.94 6753.5 3890.25 6753.5 3930.44V3931.39C6753.5 3978.75 6716.66 4002.2 6670.26 4002.2C6639.64 4001.72 6609.5 3992.63 6584.14 3975.41Z" fill="#6DB33F"/>
<path d="M6772.64 3795.04C6772.16 3781.17 6783.64 3769.69 6797.51 3769.21H6797.99C6812.34 3769.21 6823.83 3780.69 6823.83 3795.04V3810.35C6840.57 3786.91 6864.01 3768.25 6900.37 3768.25C6953 3768.25 7004.67 3809.88 7004.67 3884.99V3885.94C7004.67 3960.57 6953.48 4002.68 6900.37 4002.68C6863.06 4002.68 6839.61 3984.02 6823.83 3962.97V4042.38C6823.83 4056.74 6812.34 4068.22 6797.99 4068.22C6784.12 4068.22 6772.64 4056.74 6772.64 4042.86V4042.38V3795.04V3795.04ZM6953 3885.94V3884.99C6953 3841.45 6923.81 3813.22 6888.89 3813.22C6853.97 3813.22 6823.35 3842.41 6823.35 3884.99V3885.94C6823.35 3929 6853.97 3957.7 6888.89 3957.7C6923.81 3957.7 6953 3930.44 6953 3885.94Z" fill="#6DB33F"/>
<path d="M7024.76 3795.04C7024.28 3781.17 7035.76 3769.69 7049.64 3769.21H7050.12C7064.47 3769.21 7075.95 3780.69 7075.95 3795.04V3807.48C7078.34 3788.35 7109.92 3769.21 7132.4 3769.21C7145.32 3768.25 7156.8 3777.82 7157.76 3790.74C7157.76 3792.17 7157.76 3793.13 7157.76 3794.57C7157.76 3807 7149.15 3817.53 7137.19 3819.44C7100.35 3825.66 7075.47 3857.72 7075.47 3902.21V3976.36C7075.47 3990.71 7063.99 4001.72 7049.64 4001.72C7035.76 4001.72 7024.28 3990.71 7024.28 3976.84C7024.28 3976.84 7024.28 3976.84 7024.28 3976.36L7024.76 3795.04Z" fill="#6DB33F"/>
<path d="M7178.33 3795.52C7177.85 3781.65 7189.33 3770.17 7203.2 3769.69H7203.68C7218.04 3769.69 7229.52 3781.17 7229.52 3795.52V3976.84C7229.52 3991.19 7218.04 4002.2 7203.68 4002.2C7189.33 4002.2 7178.33 3990.71 7178.33 3976.84V3795.52Z" fill="#6DB33F"/>
<path d="M7255.83 3795.52C7255.35 3781.65 7266.84 3770.17 7280.71 3769.69H7281.19C7295.54 3769.69 7307.02 3781.17 7307.02 3795.52V3806.05C7322.33 3782.13 7349.12 3768.25 7377.35 3769.21C7428.06 3769.21 7457.24 3803.18 7457.24 3855.32V3976.36C7457.72 3990.24 7446.72 4001.24 7432.84 4001.72C7432.37 4001.72 7432.37 4001.72 7431.89 4001.72C7418.01 4002.2 7406.53 3990.71 7406.05 3976.84V3976.36V3871.11C7406.05 3836.19 7388.83 3816.09 7357.73 3816.09C7328.07 3816.09 7307.02 3837.14 7307.02 3872.07V3976.84C7307.02 3991.19 7295.54 4002.67 7281.19 4002.67C7266.84 4002.67 7255.35 3991.19 7255.35 3976.84L7255.83 3795.52Z" fill="#6DB33F"/>
<path d="M7684.01 3768.73C7669.65 3768.73 7658.17 3780.21 7658.17 3794.57V3809.88C7641.43 3786.43 7617.99 3767.78 7581.63 3767.78C7529 3767.78 7477.33 3809.4 7477.33 3884.51V3885.46C7477.33 3960.1 7528.52 4002.2 7581.63 4002.2C7618.94 4002.2 7642.39 3983.54 7658.17 3962.97C7655.78 4003.63 7630.9 4024.68 7587.37 4024.68C7563.45 4024.68 7539.53 4018.94 7518.48 4006.98C7515.61 4005.55 7512.74 4005.07 7509.39 4005.07C7497.43 4005.07 7487.86 4014.16 7487.38 4026.12C7487.38 4035.21 7493.12 4043.82 7501.73 4046.69C7529 4060.08 7558.66 4066.78 7588.8 4066.78C7629.47 4066.78 7661.04 4057.21 7681.14 4036.64C7699.79 4017.98 7709.84 3989.76 7709.84 3951.96V3795.04C7710.32 3780.69 7698.84 3769.21 7684.49 3768.73C7684.49 3768.73 7684.01 3768.73 7684.01 3768.73ZM7593.59 3957.7C7558.19 3957.7 7529.48 3929.96 7529.48 3885.46V3884.51C7529.48 3840.97 7558.66 3812.75 7593.59 3812.75C7628.51 3812.75 7659.13 3841.93 7659.13 3884.51V3885.46C7659.61 3928.52 7628.99 3957.7 7593.59 3957.7Z" fill="#6DB33F"/>
<path d="M7230 3707.5C7230 3721.85 7218.51 3733.33 7204.16 3733.33C7189.81 3733.33 7178.33 3721.85 7178.33 3707.5C7178.33 3693.14 7189.81 3681.66 7204.16 3681.66C7218.04 3681.18 7229.52 3692.66 7230 3706.54C7230 3707.02 7230 3707.02 7230 3707.5Z" fill="#6DB33F"/>
<path d="M7768.69 3822.79C7754.34 3822.79 7742.38 3810.83 7742.38 3796.48C7742.38 3782.13 7754.34 3770.17 7768.69 3770.17C7783.04 3770.17 7795 3782.13 7795 3796.48C7795 3810.83 7783.04 3822.79 7768.69 3822.79ZM7768.69 3773.99C7756.25 3773.99 7746.2 3784.04 7746.2 3796.48C7746.2 3808.92 7756.25 3818.97 7768.69 3818.97C7781.13 3818.97 7791.17 3808.92 7791.17 3796.48C7791.17 3784.04 7781.6 3773.99 7769.17 3773.99H7768.69ZM7775.86 3811.31L7768.21 3799.35H7762.95V3811.31H7758.64V3781.17H7771.08C7776.34 3780.69 7780.65 3785 7781.13 3790.26C7781.13 3794.57 7777.78 3798.39 7773.47 3799.35L7781.6 3811.31H7775.86ZM7770.6 3785H7762.95V3795.52H7771.08C7773.95 3795.52 7776.34 3793.13 7776.34 3790.26C7776.34 3787.39 7773.95 3785 7770.6 3785Z" fill="#6DB33F"/>
<path d="M6398.52 4033.77C6430.09 3996.46 6449.23 3949.57 6452.58 3900.77Z" fill="#6DB33F"/>
<path d="M6410.96 3986.89C6354.03 4062.95 6231.55 4037.12 6153.57 4040.95C6153.57 4040.95 6139.7 4041.9 6125.82 4043.82C6125.82 4043.82 6131.09 4041.43 6137.78 4039.03C6192.8 4019.9 6218.64 4016.07 6252.12 3998.85C6314.8 3966.79 6377.47 3896.47 6389.91 3823.75C6365.99 3893.6 6293.27 3953.88 6227.25 3978.28C6181.8 3995.02 6099.99 4011.29 6099.99 4011.29L6096.64 4009.37C6041.15 3982.1 6039.23 3861.54 6140.65 3822.79C6185.15 3805.57 6227.25 3815.14 6275.57 3803.66C6326.76 3791.7 6386.08 3753.42 6410 3703.19C6436.79 3784.04 6469.32 3909.38 6410.96 3986.89Z" fill="white"/>
<path d="M6097.12 4056.26C6090.42 4064.87 6077.98 4065.83 6069.37 4059.13C6060.76 4052.43 6059.81 4039.99 6066.5 4031.38C6073.2 4022.77 6085.64 4021.81 6094.25 4028.51C6102.38 4035.21 6103.82 4047.65 6097.12 4056.26Z" fill="white"/>
</g>
<path d="M1892.37 3407.07C1892.36 3385.6 1890.2 3364.18 1885.92 3343.15C1881.63 3321.61 1874.35 3300.78 1864.28 3281.26C1853.76 3262.36 1840.68 3245 1825.42 3229.66C1809.68 3214.26 1791.4 3201.7 1771.38 3192.52C1751.62 3182.56 1730.49 3175.59 1708.68 3171.86C1687.04 3167.7 1663.28 3167.7 1641.65 3165.66H1107.96C1091.32 3165.93 1074.71 3167.32 1058.24 3169.82C1041.91 3171.75 1025.92 3175.92 1010.73 3182.23C1006.4 3184.27 999.954 3186.4 995.627 3188.44C981.256 3196.14 967.596 3205.1 954.806 3215.21C950.479 3219.38 946.152 3221.42 941.825 3225.5C925.914 3240.26 912.755 3257.73 902.965 3277.1C892.272 3296.34 884.955 3317.27 881.33 3338.98C878.112 3360.17 875.96 3381.5 874.88 3402.91V3895.93C874.887 3917.4 877.048 3938.82 881.33 3959.86C885.614 3981.4 892.897 4002.23 902.965 4021.74C913.486 4040.64 926.563 4058.01 941.825 4073.34C957.567 4088.74 975.851 4101.31 995.872 4110.49C1015.63 4120.45 1036.76 4127.41 1058.57 4131.14C1080.21 4135.3 1103.96 4135.3 1125.6 4137.35H1641.73C1664.22 4137.33 1686.65 4135.25 1708.76 4131.14C1730.57 4127.41 1751.7 4120.45 1771.46 4110.49C1791.05 4100.57 1809.23 4088.08 1825.5 4073.34C1841.41 4058.58 1854.57 4041.11 1864.36 4021.74C1875.06 4002.5 1882.37 3981.57 1886 3959.86C1889.22 3938.67 1891.37 3917.34 1892.45 3895.93V3407.07H1892.37Z" fill="#F05138"/>
<path d="M1554.94 3916.84C1464.24 3966.88 1339.58 3972.02 1214.09 3920.67C1116.26 3880.98 1032.61 3812.8 973.989 3724.98C1001.23 3745.83 1030.99 3763.17 1062.57 3776.58C1192.13 3834.54 1321.61 3830.54 1412.81 3776.58C1283 3681.38 1172.78 3557.62 1090.65 3456.55C1074.45 3439.46 1059.98 3420.81 1047.47 3400.87C1146.74 3487.49 1304.63 3596.8 1360.8 3627.75C1280.6 3545.57 1206.91 3457.3 1140.37 3363.72C1250.97 3471.2 1372.67 3566.63 1503.43 3648.4C1509.23 3651.5 1513.72 3654.12 1517.31 3656.57C1521.14 3647.21 1524.44 3637.64 1527.19 3627.91C1557.47 3522.67 1522.86 3403.07 1447.26 3304.04C1622.3 3405.03 1726.39 3594.76 1682.79 3753.64C1681.65 3757.96 1680.43 3761.8 1679.12 3766.29L1680.67 3768.09C1767.13 3871.2 1743.37 3980.35 1732.51 3959.94C1685.57 3871.93 1598.78 3899.12 1554.94 3916.84Z" fill="#FEFEFE"/>
<g clip-path="url(#clip8)">
<path d="M134.5 4706.48C116.664 4706.48 99.5589 4713.56 86.9471 4726.17C74.3352 4738.78 67.25 4755.89 67.25 4773.73V5042.73C67.25 5060.56 74.3352 5077.67 86.9471 5090.28C99.5589 5102.89 116.664 5109.98 134.5 5109.98C152.336 5109.98 169.441 5102.89 182.053 5090.28C194.665 5077.67 201.75 5060.56 201.75 5042.73V4773.73C201.75 4755.89 194.665 4738.78 182.053 4726.17C169.441 4713.56 152.336 4706.48 134.5 4706.48ZM941.5 4706.48C923.664 4706.48 906.559 4713.56 893.947 4726.17C881.335 4738.78 874.25 4755.89 874.25 4773.73V5042.73C874.25 5060.56 881.335 5077.67 893.947 5090.28C906.559 5102.89 923.664 5109.98 941.5 5109.98C959.336 5109.98 976.441 5102.89 989.053 5090.28C1001.66 5077.67 1008.75 5060.56 1008.75 5042.73V4773.73C1008.75 4755.89 1001.66 4738.78 989.053 4726.17C976.441 4713.56 959.336 4706.48 941.5 4706.48ZM269 5113.88C269 5131.71 276.085 5148.82 288.697 5161.43C301.309 5174.04 318.414 5181.13 336.25 5181.13V5311.73C336.25 5329.56 343.335 5346.67 355.947 5359.28C368.559 5371.89 385.664 5378.98 403.5 5378.98C421.336 5378.98 438.441 5371.89 451.053 5359.28C463.665 5346.67 470.75 5329.56 470.75 5311.73V5181.13H605.25V5311.73C605.25 5329.56 612.335 5346.67 624.947 5359.28C637.559 5371.89 654.664 5378.98 672.5 5378.98C690.336 5378.98 707.441 5371.89 720.053 5359.28C732.665 5346.67 739.75 5329.56 739.75 5311.73V5181.13C757.586 5181.13 774.691 5174.04 787.303 5161.43C799.915 5148.82 807 5131.71 807 5113.88V4710.38H269V5113.88ZM705.856 4430.55L765.708 4357.99C771.389 4351.11 774.106 4342.26 773.261 4333.38C772.416 4324.5 768.078 4316.32 761.203 4310.64C754.327 4304.96 745.476 4302.24 736.598 4303.09C727.719 4303.93 719.539 4308.27 713.859 4315.15L648.425 4394.44C613.766 4378.58 576.114 4370.32 538 4370.23C497.986 4370.23 460.326 4379.51 426.23 4395.24L362.545 4315.62C356.971 4308.65 348.859 4304.19 339.993 4303.2C331.127 4302.22 322.233 4304.8 315.268 4310.37C308.303 4315.95 303.838 4324.06 302.854 4332.92C301.87 4341.79 304.449 4350.68 310.023 4357.65L369.068 4431.49C337.932 4456.44 312.781 4488.06 295.465 4524C278.148 4559.95 269.105 4599.32 269 4639.23H807C807 4554.49 767.054 4479.84 705.856 4430.55V4430.55ZM470.75 4538.35C461.832 4538.35 453.279 4534.81 446.974 4528.5C440.668 4522.2 437.125 4513.64 437.125 4504.73C437.125 4495.81 440.668 4487.25 446.974 4480.95C453.279 4474.64 461.832 4471.1 470.75 4471.1C479.668 4471.1 488.221 4474.64 494.526 4480.95C500.832 4487.25 504.375 4495.81 504.375 4504.73C504.375 4513.64 500.832 4522.2 494.526 4528.5C488.221 4534.81 479.668 4538.35 470.75 4538.35ZM605.25 4538.35C596.332 4538.35 587.779 4534.81 581.474 4528.5C575.168 4522.2 571.625 4513.64 571.625 4504.73C571.625 4495.81 575.168 4487.25 581.474 4480.95C587.779 4474.64 596.332 4471.1 605.25 4471.1C614.168 4471.1 622.721 4474.64 629.026 4480.95C635.332 4487.25 638.875 4495.81 638.875 4504.73C638.875 4513.64 635.332 4522.2 629.026 4528.5C622.721 4534.81 614.168 4538.35 605.25 4538.35Z" fill="#8BC34A"/>
</g>
<g clip-path="url(#clip9)">
<path d="M5779.19 6428.29L5497.57 6315.4L5005.99 6794.11L4709.97 6568.77L4597.41 6625.38L4597.3 7216.32L4709.33 7272.52L5005.11 7047.37L5497.89 7525.64L5779.29 7413.19L5779.19 6428.29Z" fill="#68217A" stroke="white" stroke-width="161.229"/>
<path d="M5469.53 6709.58L5188.25 6919.86L5469.65 7131.79L5469.53 6709.58V6709.58ZM4737.94 6794.35L4738.11 7047.27L4878.63 6919.95L4737.94 6794.35V6794.35Z" fill="white"/>
</g>
<defs>
<clipPath id="clip0">
<rect width="1339.38" height="1156.14" fill="white" transform="translate(714 1534)"/>
</clipPath>
<clipPath id="clip1">
<rect width="1582" height="1582" fill="white" transform="translate(7210 1899)"/>
</clipPath>
<clipPath id="clip2">
<rect width="1144" height="956" fill="white" transform="translate(8478 3312)"/>
</clipPath>
<clipPath id="clip3">
<rect width="1195" height="1195" fill="white" transform="translate(1235 5560)"/>
</clipPath>
<clipPath id="clip4">
<rect width="1402" height="958.407" fill="white" transform="translate(8748 1732)"/>
</clipPath>
<clipPath id="clip5">
<rect width="2500" height="713" fill="white" transform="translate(2369 4578)"/>
</clipPath>
<clipPath id="clip6">
<rect width="1302" height="1302" fill="white" transform="translate(4048 5120)"/>
</clipPath>
<clipPath id="clip7">
<rect width="1806" height="464.537" fill="white" transform="translate(5989 3652)"/>
</clipPath>
<clipPath id="clip8">
<rect width="1076" height="1076" fill="white" transform="translate(0 4303)"/>
</clipPath>
<clipPath id="clip9">
<rect width="1266.59" height="1309" fill="white" transform="translate(4555 6266)"/>
</clipPath>
</defs>
</svg>
